999
FreeCAD v1.0 
  0
SECTION
  2
HEADER
  9
$ACADVER
  1
AC1014
  9
$ACADMAINTVER
 70
     9
  9
$DWGCODEPAGE
  3
ANSI_1252
  9
$TEXTSTYLE
  7
STANDARD
  9
$DIMSTYLE
  2
STANDARD
  9
$DIMTXSTY
  7
STANDARD
  9
$CMLSTYLE
  2
STANDARD
  9
$LUNITS
 70
2
  9
$INSUNITS
 70
4
  9
$PEXTMAX
 10
50
 20
50
 30
50
  9
$PEXTMIN
 10
0
 20
0
 30
0
  9
$HANDSEED
  5
FFFF
  0
ENDSEC
  0
SECTION
  2
CLASSES
  0
CLASS
  1
ACDBDICTIONARYWDFLT
  2
AcDbDictionaryWithDefault
  3
ObjectDBX Classes
 90
        0
280
     0
281
     0
  0
CLASS
  1
XRECORD
  2
AcDbXrecord
  3
ObjectDBX Classes
 90
        0
280
     0
281
     0
  0
CLASS
  1
LWPOLYLINE
  2
AcDbPolyline
  3
ObjectDBX Classes
 90
        0
280
     0
281
     1
  0
ENDSEC
  0
SECTION
  2
TABLES
  0
TABLE
  2
VPORT
  5
20
330
0
100
AcDbSymbolTable
 70
     1
  0
VPORT
  5
21
330
20
100
AcDbSymbolTableRecord
100
AcDbViewportTableRecord
  2
*ACTIVE
 70
     0
  0
ENDTAB
  0
TABLE
  2
LTYPE
  5
22
330
0
100
AcDbSymbolTable
 70
     1
  0
LTYPE
  5
23
330
21
100
AcDbSymbolTableRecord
100
AcDbLinetypeTableRecord
  2
BYBLOCK
 70
     0
  3

 72
    65
 73
     0
 40
0.0
  0
LTYPE
  5
24
330
21
100
AcDbSymbolTableRecord
100
AcDbLinetypeTableRecord
  2
BYLAYER
 70
     0
  3

 72
    65
 73
     0
 40
0.0
  0
LTYPE
  5
25
330
21
100
AcDbSymbolTableRecord
100
AcDbLinetypeTableRecord
  2
CONTINUOUS
 70
     0
  3
Solid line
 72
    65
 73
     0
 40
0.0
  0
ENDTAB
  0
TABLE
  2
LAYER
  5
C96
330
0
100
AcDbSymbolTable
 70
3
  0
LAYER
  5
C97
330
C96
100
AcDbSymbolTableRecord
100
AcDbLayerTableRecord
  2
0
 70
   0
 62
   7
  6
CONTINUOUS
  0
LAYER
  5
C98
330
C96
100
AcDbSymbolTableRecord
100
AcDbLayerTableRecord
  2
View
 70
    0
 62
    7
  6
CONTINUOUS
  0
LAYER
  5
C99
330
C96
100
AcDbSymbolTableRecord
100
AcDbLayerTableRecord
  2
ProjItem
 70
    0
 62
    7
  6
CONTINUOUS
  0
ENDTAB
  0
TABLE
  2
STYLE
  5
70
330
0
100
AcDbSymbolTable
 70
     2
  0
STYLE
  5
71
330
70
100
AcDbSymbolTableRecord
100
AcDbTextStyleTableRecord
  2
STANDARD
 70
     0
 40
0.0
 41
1.0
 50
0.0
 71
     0
 42
2.5
  3
arial.ttf
  4

  0
STYLE
  5
72
330
70
100
AcDbSymbolTableRecord
100
AcDbTextStyleTableRecord
  2
ANNOTATIVE
 70
     0
 40
0.0
 41
1.0
 50
0.0
 71
     0
 42
2.5
  3
arial.ttf
  4

  0
ENDTAB
  0
TABLE
  2
VIEW
  5
73
330
0
100
AcDbSymbolTable
 70
     0
  0
ENDTAB
  0
TABLE
  2
UCS
  5
74
330
0
100
AcDbSymbolTable
 70
     0
  0
ENDTAB
  0
TABLE
  2
APPID
  5
75
330
0
100
AcDbSymbolTable
 70
     2
  0
APPID
  5
76
330
75
100
AcDbSymbolTableRecord
100
AcDbRegAppTableRecord
  2
ACAD
 70
     0
  0
APPID
  5
77
330
75
100
AcDbSymbolTableRecord
100
AcDbRegAppTableRecord
  2
ACADANNOTATIVE
 70
     0
  0
ENDTAB
  0
TABLE
  2
DIMSTYLE
  5
78
330
0
100
AcDbSymbolTable
 70
     2
  0
DIMSTYLE
105
79
330
78
100
AcDbSymbolTableRecord
100
AcDbDimStyleTableRecord
  2
STANDARD
 70
     0
  3

  4

  5

  6

  7

 40
0.0
 41
2.5
 42
0.625
 43
3.75
 44
1.25
 45
0.0
 46
0.0
 47
0.0
 48
0.0
140
2.5
141
2.5
142
0.0
143
0.03937007874016
144
1.0
145
0.0
146
1.0
147
0.625
 71
     0
 72
     0
 73
     0
 74
     0
 75
     0
 76
     0
 77
     1
 78
     8
170
     0
171
     3
172
     1
173
     0
174
     0
175
     0
176
     0
177
     0
178
     0
270
     2
271
     2
272
     2
273
     2
274
     3
340
71
275
     0
280
     0
281
     0
282
     0
283
     0
284
     8
285
     0
286
     0
287
     3
288
     0
  0
ENDTAB
  0
TABLE
  2
BLOCK_RECORD
  5
A01
330
0
100
AcDbSymbolTable
  70
5
  0
BLOCK_RECORD
  5
A02
330
A01
100
AcDbSymbolTableRecord
100
AcDbBlockTableRecord
  2
*MODEL_SPACE
  0
BLOCK_RECORD
  5
A03
330
A01
100
AcDbSymbolTableRecord
100
AcDbBlockTableRecord
  2
*PAPER_SPACE
  0
ENDTAB
  0
ENDSEC
  0
SECTION
  2
BLOCKS
  0
BLOCK
  5
A04
330
A02
100
AcDbEntity
  8
0
100
AcDbBlockBegin
  2
*MODEL_SPACE
 70
   0
 10
0
 20
0
 30
0
  3
*MODEL_SPACE
  1
 
  0
ENDBLK
  5
A05
330
A02
100
AcDbEntity
  8
0
100
AcDbBlockEnd
  0
BLOCK
  5
A06
330
A03
100
AcDbEntity
 67
1
  8
0
100
AcDbBlockBegin
  2
*PAPER_SPACE
 70
   0
 10
0
 20
0
 30
0
  3
*PAPER_SPACE
  1
 
  0
ENDBLK
  5
A07
330
A03
100
AcDbEntity
 67
    1
  8
0
100
AcDbBlockEnd
  0
ENDSEC
  0
SECTION
  2
ENTITIES
  0
LINE
  5
A08
330
A02
100
AcDbEntity
  8
View
100
AcDbLine
 10
193.325000286
 20
132.500000000
 30
0.000000000
 11
194.664388657
 21
132.323665619
 31
0.000000000
  0
LINE
  5
A09
330
A02
100
AcDbEntity
  8
View
100
AcDbLine
 10
194.664388657
 20
132.323665619
 30
0.000000000
 11
195.912500143
 21
131.806682587
 31
0.000000000
  0
LINE
  5
A0A
330
A02
100
AcDbEntity
  8
View
100
AcDbLine
 10
195.912500143
 20
131.806682587
 30
0.000000000
 11
196.984277606
 21
130.984275818
 31
0.000000000
  0
LINE
  5
A0B
330
A02
100
AcDbEntity
  8
View
100
AcDbLine
 10
196.984277606
 20
130.984275818
 30
0.000000000
 11
197.806681454
 21
129.912498474
 31
0.000000000
  0
LINE
  5
A0C
330
A02
100
AcDbEntity
  8
View
100
AcDbLine
 10
197.806681454
 20
129.912498474
 30
0.000000000
 11
198.323666155
 21
128.664390564
 31
0.000000000
  0
LINE
  5
A0D
330
A02
100
AcDbEntity
  8
View
100
AcDbLine
 10
198.323666155
 20
128.664390564
 30
0.000000000
 11
198.500000000
 21
127.325000763
 31
0.000000000
  0
LINE
  5
A0E
330
A02
100
AcDbEntity
  8
View
100
AcDbLine
 10
133.300003052
 20
123.500000000
 30
0.000000000
 11
113.875000000
 21
105.000000000
 31
0.000000000
  0
LINE
  5
A0F
330
A02
100
AcDbEntity
  8
View
100
AcDbLine
 10
113.875000000
 20
105.000000000
 30
0.000000000
 11
133.300003052
 21
86.500000000
 31
0.000000000
  0
LINE
  5
A10
330
A02
100
AcDbEntity
  8
View
100
AcDbLine
 10
113.652175903
 20
104.023761749
 30
0.000000000
 11
133.300003052
 21
86.500000000
 31
0.000000000
  0
LINE
  5
A11
330
A02
100
AcDbEntity
  8
View
100
AcDbLine
 10
113.875000000
 20
105.000000000
 30
0.000000000
 11
113.652175903
 21
104.023761749
 31
0.000000000
  0
LINE
  5
A12
330
A02
100
AcDbEntity
  8
View
100
AcDbLine
 10
113.027854919
 20
103.240879059
 30
0.000000000
 11
133.300003052
 21
86.500000000
 31
0.000000000
  0
LINE
  5
A13
330
A02
100
AcDbEntity
  8
View
100
AcDbLine
 10
113.652175903
 20
104.023761749
 30
0.000000000
 11
113.027854919
 21
103.240879059
 31
0.000000000
  0
LINE
  5
A14
330
A02
100
AcDbEntity
  8
View
100
AcDbLine
 10
133.452239990
 20
124.265365601
 30
0.000000000
 11
112.739662170
 21
121.716346741
 31
0.000000000
  0
LINE
  5
A15
330
A02
100
AcDbEntity
  8
View
100
AcDbLine
 10
112.739662170
 20
121.716346741
 30
0.000000000
 11
133.300003052
 21
123.500000000
 31
0.000000000
  0
LINE
  5
A16
330
A02
100
AcDbEntity
  8
View
100
AcDbLine
 10
112.949996948
 20
121.000000000
 30
0.000000000
 11
133.300003052
 21
123.500000000
 31
0.000000000
  0
LINE
  5
A17
330
A02
100
AcDbEntity
  8
View
100
AcDbLine
 10
112.739662170
 20
121.716346741
 30
0.000000000
 11
112.949996948
 21
121.000000000
 31
0.000000000
  0
LINE
  5
A18
330
A02
100
AcDbEntity
  8
View
100
AcDbLine
 10
112.739662170
 20
120.283653259
 30
0.000000000
 11
133.300003052
 21
123.500000000
 31
0.000000000
  0
LINE
  5
A19
330
A02
100
AcDbEntity
  8
View
100
AcDbLine
 10
112.949996948
 20
121.000000000
 30
0.000000000
 11
112.739662170
 21
120.283653259
 31
0.000000000
  0
LINE
  5
A1A
330
A02
100
AcDbEntity
  8
View
100
AcDbLine
 10
112.175422668
 20
122.205261230
 30
0.000000000
 11
112.739662170
 21
121.716346741
 31
0.000000000
  0
LINE
  5
A1B
330
A02
100
AcDbEntity
  8
View
100
AcDbLine
 10
133.452239990
 20
124.265365601
 30
0.000000000
 11
112.175422668
 21
122.205261230
 31
0.000000000
  0
LINE
  5
A1C
330
A02
100
AcDbEntity
  8
View
100
AcDbLine
 10
133.885787964
 20
124.914211273
 30
0.000000000
 11
112.175422668
 21
122.205261230
 31
0.000000000
  0
LINE
  5
A1D
330
A02
100
AcDbEntity
  8
View
100
AcDbLine
 10
103.675003052
 20
132.500000000
 30
0.000000000
 11
112.175422668
 21
122.205261230
 31
0.000000000
  0
LINE
  5
A1E
330
A02
100
AcDbEntity
  8
View
100
AcDbLine
 10
133.885787964
 20
124.914211273
 30
0.000000000
 11
103.675003052
 21
132.500000000
 31
0.000000000
  0
LINE
  5
A1F
330
A02
100
AcDbEntity
  8
View
100
AcDbLine
 10
134.534629822
 20
125.347755432
 30
0.000000000
 11
103.675003052
 21
132.500000000
 31
0.000000000
  0
LINE
  5
A20
330
A02
100
AcDbEntity
  8
View
100
AcDbLine
 10
135.299999237
 20
125.500000000
 30
0.000000000
 11
103.675003052
 21
132.500000000
 31
0.000000000
  0
LINE
  5
A21
330
A02
100
AcDbEntity
  8
View
100
AcDbLine
 10
161.500000000
 20
125.500000000
 30
0.000000000
 11
103.675003052
 21
132.500000000
 31
0.000000000
  0
LINE
  5
A22
330
A02
100
AcDbEntity
  8
View
100
AcDbLine
 10
193.325000286
 20
132.500000000
 30
0.000000000
 11
103.675003052
 21
132.500000000
 31
0.000000000
  0
LINE
  5
A23
330
A02
100
AcDbEntity
  8
View
100
AcDbLine
 10
161.500000000
 20
125.500000000
 30
0.000000000
 11
193.325000286
 21
132.500000000
 31
0.000000000
  0
LINE
  5
A24
330
A02
100
AcDbEntity
  8
View
100
AcDbLine
 10
162.265365601
 20
125.347755432
 30
0.000000000
 11
193.325000286
 21
132.500000000
 31
0.000000000
  0
LINE
  5
A25
330
A02
100
AcDbEntity
  8
View
100
AcDbLine
 10
162.914211273
 20
124.914211273
 30
0.000000000
 11
193.325000286
 21
132.500000000
 31
0.000000000
  0
LINE
  5
A26
330
A02
100
AcDbEntity
  8
View
100
AcDbLine
 10
163.347759247
 20
124.265365601
 30
0.000000000
 11
184.307309151
 21
122.001365662
 31
0.000000000
  0
LINE
  5
A27
330
A02
100
AcDbEntity
  8
View
100
AcDbLine
 10
184.307309151
 20
122.001365662
 30
0.000000000
 11
162.914211273
 21
124.914211273
 31
0.000000000
  0
LINE
  5
A28
330
A02
100
AcDbEntity
  8
View
100
AcDbLine
 10
184.986433029
 20
122.311511993
 30
0.000000000
 11
162.914211273
 21
124.914211273
 31
0.000000000
  0
LINE
  5
A29
330
A02
100
AcDbEntity
  8
View
100
AcDbLine
 10
184.307309151
 20
122.001365662
 30
0.000000000
 11
184.986433029
 21
122.311511993
 31
0.000000000
  0
LINE
  5
A2A
330
A02
100
AcDbEntity
  8
View
100
AcDbLine
 10
184.986433029
 20
122.311511993
 30
0.000000000
 11
193.325000286
 21
132.500000000
 31
0.000000000
  0
LINE
  5
A2B
330
A02
100
AcDbEntity
  8
View
100
AcDbLine
 10
185.725425720
 20
122.205261230
 30
0.000000000
 11
193.325000286
 21
132.500000000
 31
0.000000000
  0
LINE
  5
A2C
330
A02
100
AcDbEntity
  8
View
100
AcDbLine
 10
184.986433029
 20
122.311511993
 30
0.000000000
 11
185.725425720
 21
122.205261230
 31
0.000000000
  0
LINE
  5
A2D
330
A02
100
AcDbEntity
  8
View
100
AcDbLine
 10
198.323666155
 20
128.664390564
 30
0.000000000
 11
193.325000286
 21
132.500000000
 31
0.000000000
  0
LINE
  5
A2E
330
A02
100
AcDbEntity
  8
View
100
AcDbLine
 10
185.725425720
 20
122.205261230
 30
0.000000000
 11
198.323666155
 21
128.664390564
 31
0.000000000
  0
LINE
  5
A2F
330
A02
100
AcDbEntity
  8
View
100
AcDbLine
 10
185.725425720
 20
122.205261230
 30
0.000000000
 11
198.500000000
 21
127.325000763
 31
0.000000000
  0
LINE
  5
A30
330
A02
100
AcDbEntity
  8
View
100
AcDbLine
 10
186.289660454
 20
121.716346741
 30
0.000000000
 11
198.500000000
 21
127.325000763
 31
0.000000000
  0
LINE
  5
A31
330
A02
100
AcDbEntity
  8
View
100
AcDbLine
 10
185.725425720
 20
122.205261230
 30
0.000000000
 11
186.289660454
 21
121.716346741
 31
0.000000000
  0
LINE
  5
A32
330
A02
100
AcDbEntity
  8
View
100
AcDbLine
 10
186.500000000
 20
121.000000000
 30
0.000000000
 11
198.500000000
 21
127.325000763
 31
0.000000000
  0
LINE
  5
A33
330
A02
100
AcDbEntity
  8
View
100
AcDbLine
 10
186.289660454
 20
121.716346741
 30
0.000000000
 11
186.500000000
 21
121.000000000
 31
0.000000000
  0
LINE
  5
A34
330
A02
100
AcDbEntity
  8
View
100
AcDbLine
 10
163.500000000
 20
123.500000000
 30
0.000000000
 11
184.307309151
 21
122.001365662
 31
0.000000000
  0
LINE
  5
A35
330
A02
100
AcDbEntity
  8
View
100
AcDbLine
 10
183.903671265
 20
121.373294830
 30
0.000000000
 11
184.307309151
 21
122.001365662
 31
0.000000000
  0
LINE
  5
A36
330
A02
100
AcDbEntity
  8
View
100
AcDbLine
 10
163.500000000
 20
123.500000000
 30
0.000000000
 11
183.903671265
 21
121.373294830
 31
0.000000000
  0
LINE
  5
A37
330
A02
100
AcDbEntity
  8
View
100
AcDbLine
 10
183.903671265
 20
120.626701355
 30
0.000000000
 11
183.903671265
 21
121.373294830
 31
0.000000000
  0
LINE
  5
A38
330
A02
100
AcDbEntity
  8
View
100
AcDbLine
 10
163.500000000
 20
123.500000000
 30
0.000000000
 11
183.903671265
 21
120.626701355
 31
0.000000000
  0
LINE
  5
A39
330
A02
100
AcDbEntity
  8
View
100
AcDbLine
 10
184.307309151
 20
119.998630524
 30
0.000000000
 11
183.903671265
 21
120.626701355
 31
0.000000000
  0
LINE
  5
A3A
330
A02
100
AcDbEntity
  8
View
100
AcDbLine
 10
163.500000000
 20
123.500000000
 30
0.000000000
 11
184.307309151
 21
119.998630524
 31
0.000000000
  0
LINE
  5
A3B
330
A02
100
AcDbEntity
  8
View
100
AcDbLine
 10
183.772148132
 20
106.759120941
 30
0.000000000
 11
184.307309151
 21
119.998630524
 31
0.000000000
  0
LINE
  5
A3C
330
A02
100
AcDbEntity
  8
View
100
AcDbLine
 10
163.500000000
 20
123.500000000
 30
0.000000000
 11
183.772148132
 21
106.759120941
 31
0.000000000
  0
LINE
  5
A3D
330
A02
100
AcDbEntity
  8
View
100
AcDbLine
 10
184.674327850
 20
107.193586349
 30
0.000000000
 11
184.307309151
 21
119.998630524
 31
0.000000000
  0
LINE
  5
A3E
330
A02
100
AcDbEntity
  8
View
100
AcDbLine
 10
183.772148132
 20
106.759120941
 30
0.000000000
 11
184.674327850
 21
107.193586349
 31
0.000000000
  0
LINE
  5
A3F
330
A02
100
AcDbEntity
  8
View
100
AcDbLine
 10
163.500000000
 20
86.500000000
 30
0.000000000
 11
182.925000191
 21
105.000000000
 31
0.000000000
  0
LINE
  5
A40
330
A02
100
AcDbEntity
  8
View
100
AcDbLine
 10
182.925000191
 20
105.000000000
 30
0.000000000
 11
163.500000000
 21
123.500000000
 31
0.000000000
  0
LINE
  5
A41
330
A02
100
AcDbEntity
  8
View
100
AcDbLine
 10
183.147819519
 20
105.976238251
 30
0.000000000
 11
163.500000000
 21
123.500000000
 31
0.000000000
  0
LINE
  5
A42
330
A02
100
AcDbEntity
  8
View
100
AcDbLine
 10
182.925000191
 20
105.000000000
 30
0.000000000
 11
183.147819519
 21
105.976238251
 31
0.000000000
  0
LINE
  5
A43
330
A02
100
AcDbEntity
  8
View
100
AcDbLine
 10
183.147819519
 20
105.976238251
 30
0.000000000
 11
183.772148132
 21
106.759120941
 31
0.000000000
  0
LINE
  5
A44
330
A02
100
AcDbEntity
  8
View
100
AcDbLine
 10
163.347759247
 20
85.734633446
 30
0.000000000
 11
184.307309151
 21
87.998632431
 31
0.000000000
  0
LINE
  5
A45
330
A02
100
AcDbEntity
  8
View
100
AcDbLine
 10
184.307309151
 20
87.998632431
 30
0.000000000
 11
163.500000000
 21
86.500000000
 31
0.000000000
  0
LINE
  5
A46
330
A02
100
AcDbEntity
  8
View
100
AcDbLine
 10
183.903671265
 20
88.626704216
 30
0.000000000
 11
163.500000000
 21
86.500000000
 31
0.000000000
  0
LINE
  5
A47
330
A02
100
AcDbEntity
  8
View
100
AcDbLine
 10
184.307309151
 20
87.998632431
 30
0.000000000
 11
183.903671265
 21
88.626704216
 31
0.000000000
  0
LINE
  5
A48
330
A02
100
AcDbEntity
  8
View
100
AcDbLine
 10
183.903671265
 20
89.373294830
 30
0.000000000
 11
163.500000000
 21
86.500000000
 31
0.000000000
  0
LINE
  5
A49
330
A02
100
AcDbEntity
  8
View
100
AcDbLine
 10
183.903671265
 20
88.626704216
 30
0.000000000
 11
183.903671265
 21
89.373294830
 31
0.000000000
  0
LINE
  5
A4A
330
A02
100
AcDbEntity
  8
View
100
AcDbLine
 10
162.914211273
 20
85.085786819
 30
0.000000000
 11
184.307309151
 21
87.998632431
 31
0.000000000
  0
LINE
  5
A4B
330
A02
100
AcDbEntity
  8
View
100
AcDbLine
 10
184.986433029
 20
87.688486099
 30
0.000000000
 11
184.307309151
 21
87.998632431
 31
0.000000000
  0
LINE
  5
A4C
330
A02
100
AcDbEntity
  8
View
100
AcDbLine
 10
162.914211273
 20
85.085786819
 30
0.000000000
 11
184.986433029
 21
87.688486099
 31
0.000000000
  0
LINE
  5
A4D
330
A02
100
AcDbEntity
  8
View
100
AcDbLine
 10
193.325000286
 20
77.500000000
 30
0.000000000
 11
184.986433029
 21
87.688486099
 31
0.000000000
  0
LINE
  5
A4E
330
A02
100
AcDbEntity
  8
View
100
AcDbLine
 10
162.914211273
 20
85.085786819
 30
0.000000000
 11
193.325000286
 21
77.500000000
 31
0.000000000
  0
LINE
  5
A4F
330
A02
100
AcDbEntity
  8
View
100
AcDbLine
 10
185.725425720
 20
87.794737816
 30
0.000000000
 11
184.986433029
 21
87.688486099
 31
0.000000000
  0
LINE
  5
A50
330
A02
100
AcDbEntity
  8
View
100
AcDbLine
 10
193.325000286
 20
77.500000000
 30
0.000000000
 11
185.725425720
 21
87.794737816
 31
0.000000000
  0
LINE
  5
A51
330
A02
100
AcDbEntity
  8
View
100
AcDbLine
 10
198.323666155
 20
81.335611343
 30
0.000000000
 11
185.725425720
 21
87.794737816
 31
0.000000000
  0
LINE
  5
A52
330
A02
100
AcDbEntity
  8
View
100
AcDbLine
 10
193.325000286
 20
77.500000000
 30
0.000000000
 11
198.323666155
 21
81.335611343
 31
0.000000000
  0
LINE
  5
A53
330
A02
100
AcDbEntity
  8
View
100
AcDbLine
 10
198.500000000
 20
82.674999714
 30
0.000000000
 11
185.725425720
 21
87.794737816
 31
0.000000000
  0
LINE
  5
A54
330
A02
100
AcDbEntity
  8
View
100
AcDbLine
 10
198.323666155
 20
81.335611343
 30
0.000000000
 11
198.500000000
 21
82.674999714
 31
0.000000000
  0
LINE
  5
A55
330
A02
100
AcDbEntity
  8
View
100
AcDbLine
 10
162.265365601
 20
84.652240753
 30
0.000000000
 11
193.325000286
 21
77.500000000
 31
0.000000000
  0
LINE
  5
A56
330
A02
100
AcDbEntity
  8
View
100
AcDbLine
 10
161.500000000
 20
84.500000000
 30
0.000000000
 11
193.325000286
 21
77.500000000
 31
0.000000000
  0
LINE
  5
A57
330
A02
100
AcDbEntity
  8
View
100
AcDbLine
 10
103.675003052
 20
77.500000000
 30
0.000000000
 11
193.325000286
 21
77.500000000
 31
0.000000000
  0
LINE
  5
A58
330
A02
100
AcDbEntity
  8
View
100
AcDbLine
 10
161.500000000
 20
84.500000000
 30
0.000000000
 11
103.675003052
 21
77.500000000
 31
0.000000000
  0
LINE
  5
A59
330
A02
100
AcDbEntity
  8
View
100
AcDbLine
 10
135.299999237
 20
84.500000000
 30
0.000000000
 11
103.675003052
 21
77.500000000
 31
0.000000000
  0
LINE
  5
A5A
330
A02
100
AcDbEntity
  8
View
100
AcDbLine
 10
134.534629822
 20
84.652240753
 30
0.000000000
 11
103.675003052
 21
77.500000000
 31
0.000000000
  0
LINE
  5
A5B
330
A02
100
AcDbEntity
  8
View
100
AcDbLine
 10
133.885787964
 20
85.085786819
 30
0.000000000
 11
103.675003052
 21
77.500000000
 31
0.000000000
  0
LINE
  5
A5C
330
A02
100
AcDbEntity
  8
View
100
AcDbLine
 10
112.175422668
 20
87.794737816
 30
0.000000000
 11
103.675003052
 21
77.500000000
 31
0.000000000
  0
LINE
  5
A5D
330
A02
100
AcDbEntity
  8
View
100
AcDbLine
 10
133.885787964
 20
85.085786819
 30
0.000000000
 11
112.175422668
 21
87.794737816
 31
0.000000000
  0
LINE
  5
A5E
330
A02
100
AcDbEntity
  8
View
100
AcDbLine
 10
111.436431885
 20
87.688486099
 30
0.000000000
 11
103.675003052
 21
77.500000000
 31
0.000000000
  0
LINE
  5
A5F
330
A02
100
AcDbEntity
  8
View
100
AcDbLine
 10
112.175422668
 20
87.794737816
 30
0.000000000
 11
111.436431885
 21
87.688486099
 31
0.000000000
  0
LINE
  5
A60
330
A02
100
AcDbEntity
  8
View
100
AcDbLine
 10
133.452239990
 20
85.734633446
 30
0.000000000
 11
112.175422668
 21
87.794737816
 31
0.000000000
  0
LINE
  5
A61
330
A02
100
AcDbEntity
  8
View
100
AcDbLine
 10
112.739662170
 20
88.283651352
 30
0.000000000
 11
112.175422668
 21
87.794737816
 31
0.000000000
  0
LINE
  5
A62
330
A02
100
AcDbEntity
  8
View
100
AcDbLine
 10
133.452239990
 20
85.734633446
 30
0.000000000
 11
112.739662170
 21
88.283651352
 31
0.000000000
  0
LINE
  5
A63
330
A02
100
AcDbEntity
  8
View
100
AcDbLine
 10
133.300003052
 20
86.500000000
 30
0.000000000
 11
112.739662170
 21
88.283651352
 31
0.000000000
  0
LINE
  5
A64
330
A02
100
AcDbEntity
  8
View
100
AcDbLine
 10
112.949996948
 20
89.000000000
 30
0.000000000
 11
112.739662170
 21
88.283651352
 31
0.000000000
  0
LINE
  5
A65
330
A02
100
AcDbEntity
  8
View
100
AcDbLine
 10
133.300003052
 20
86.500000000
 30
0.000000000
 11
112.949996948
 21
89.000000000
 31
0.000000000
  0
LINE
  5
A66
330
A02
100
AcDbEntity
  8
View
100
AcDbLine
 10
112.739662170
 20
89.716348648
 30
0.000000000
 11
112.949996948
 21
89.000000000
 31
0.000000000
  0
LINE
  5
A67
330
A02
100
AcDbEntity
  8
View
100
AcDbLine
 10
133.300003052
 20
86.500000000
 30
0.000000000
 11
112.739662170
 21
89.716348648
 31
0.000000000
  0
LINE
  5
A68
330
A02
100
AcDbEntity
  8
View
100
AcDbLine
 10
112.175422668
 20
90.205263138
 30
0.000000000
 11
112.739662170
 21
89.716348648
 31
0.000000000
  0
LINE
  5
A69
330
A02
100
AcDbEntity
  8
View
100
AcDbLine
 10
133.300003052
 20
86.500000000
 30
0.000000000
 11
112.175422668
 21
90.205263138
 31
0.000000000
  0
LINE
  5
A6A
330
A02
100
AcDbEntity
  8
View
100
AcDbLine
 10
113.027854919
 20
103.240879059
 30
0.000000000
 11
112.175422668
 21
90.205263138
 31
0.000000000
  0
LINE
  5
A6B
330
A02
100
AcDbEntity
  8
View
100
AcDbLine
 10
112.125671387
 20
102.806413651
 30
0.000000000
 11
112.175422668
 21
90.205263138
 31
0.000000000
  0
LINE
  5
A6C
330
A02
100
AcDbEntity
  8
View
100
AcDbLine
 10
113.027854919
 20
103.240879059
 30
0.000000000
 11
112.125671387
 21
102.806413651
 31
0.000000000
  0
LINE
  5
A6D
330
A02
100
AcDbEntity
  8
View
100
AcDbLine
 10
187.425000191
 20
105.000000000
 30
0.000000000
 11
187.202180862
 21
104.023761749
 31
0.000000000
  0
LINE
  5
A6E
330
A02
100
AcDbEntity
  8
View
100
AcDbLine
 10
187.202180862
 20
104.023761749
 30
0.000000000
 11
198.500000000
 21
82.674999714
 31
0.000000000
  0
LINE
  5
A6F
330
A02
100
AcDbEntity
  8
View
100
AcDbLine
 10
198.500000000
 20
82.674999714
 30
0.000000000
 11
187.425000191
 21
105.000000000
 31
0.000000000
  0
LINE
  5
A70
330
A02
100
AcDbEntity
  8
View
100
AcDbLine
 10
198.500000000
 20
127.325000763
 30
0.000000000
 11
187.425000191
 21
105.000000000
 31
0.000000000
  0
LINE
  5
A71
330
A02
100
AcDbEntity
  8
View
100
AcDbLine
 10
198.500000000
 20
82.674999714
 30
0.000000000
 11
198.500000000
 21
127.325000763
 31
0.000000000
  0
LINE
  5
A72
330
A02
100
AcDbEntity
  8
View
100
AcDbLine
 10
187.202180862
 20
105.976238251
 30
0.000000000
 11
187.425000191
 21
105.000000000
 31
0.000000000
  0
LINE
  5
A73
330
A02
100
AcDbEntity
  8
View
100
AcDbLine
 10
198.500000000
 20
127.325000763
 30
0.000000000
 11
187.202180862
 21
105.976238251
 31
0.000000000
  0
LINE
  5
A74
330
A02
100
AcDbEntity
  8
View
100
AcDbLine
 10
186.577851295
 20
106.759120941
 30
0.000000000
 11
187.202180862
 21
105.976238251
 31
0.000000000
  0
LINE
  5
A75
330
A02
100
AcDbEntity
  8
View
100
AcDbLine
 10
198.500000000
 20
127.325000763
 30
0.000000000
 11
186.577851295
 21
106.759120941
 31
0.000000000
  0
LINE
  5
A76
330
A02
100
AcDbEntity
  8
View
100
AcDbLine
 10
186.289660454
 20
120.283653259
 30
0.000000000
 11
186.577851295
 21
106.759120941
 31
0.000000000
  0
LINE
  5
A77
330
A02
100
AcDbEntity
  8
View
100
AcDbLine
 10
198.500000000
 20
127.325000763
 30
0.000000000
 11
186.289660454
 21
120.283653259
 31
0.000000000
  0
LINE
  5
A78
330
A02
100
AcDbEntity
  8
View
100
AcDbLine
 10
185.725425720
 20
119.794734955
 30
0.000000000
 11
186.577851295
 21
106.759120941
 31
0.000000000
  0
LINE
  5
A79
330
A02
100
AcDbEntity
  8
View
100
AcDbLine
 10
186.289660454
 20
120.283653259
 30
0.000000000
 11
185.725425720
 21
119.794734955
 31
0.000000000
  0
LINE
  5
A7A
330
A02
100
AcDbEntity
  8
View
100
AcDbLine
 10
187.202180862
 20
104.023761749
 30
0.000000000
 11
186.577851295
 21
103.240879059
 31
0.000000000
  0
LINE
  5
A7B
330
A02
100
AcDbEntity
  8
View
100
AcDbLine
 10
186.577851295
 20
103.240879059
 30
0.000000000
 11
198.500000000
 21
82.674999714
 31
0.000000000
  0
LINE
  5
A7C
330
A02
100
AcDbEntity
  8
View
100
AcDbLine
 10
186.289660454
 20
89.716348648
 30
0.000000000
 11
198.500000000
 21
82.674999714
 31
0.000000000
  0
LINE
  5
A7D
330
A02
100
AcDbEntity
  8
View
100
AcDbLine
 10
186.577851295
 20
103.240879059
 30
0.000000000
 11
186.289660454
 21
89.716348648
 31
0.000000000
  0
LINE
  5
A7E
330
A02
100
AcDbEntity
  8
View
100
AcDbLine
 10
186.500000000
 20
89.000000000
 30
0.000000000
 11
198.500000000
 21
82.674999714
 31
0.000000000
  0
LINE
  5
A7F
330
A02
100
AcDbEntity
  8
View
100
AcDbLine
 10
186.289660454
 20
89.716348648
 30
0.000000000
 11
186.500000000
 21
89.000000000
 31
0.000000000
  0
LINE
  5
A80
330
A02
100
AcDbEntity
  8
View
100
AcDbLine
 10
185.725425720
 20
90.205263138
 30
0.000000000
 11
186.289660454
 21
89.716348648
 31
0.000000000
  0
LINE
  5
A81
330
A02
100
AcDbEntity
  8
View
100
AcDbLine
 10
186.577851295
 20
103.240879059
 30
0.000000000
 11
185.725425720
 21
90.205263138
 31
0.000000000
  0
LINE
  5
A82
330
A02
100
AcDbEntity
  8
View
100
AcDbLine
 10
185.675672531
 20
102.806413651
 30
0.000000000
 11
185.725425720
 21
90.205263138
 31
0.000000000
  0
LINE
  5
A83
330
A02
100
AcDbEntity
  8
View
100
AcDbLine
 10
186.577851295
 20
103.240879059
 30
0.000000000
 11
185.675672531
 21
102.806413651
 31
0.000000000
  0
LINE
  5
A84
330
A02
100
AcDbEntity
  8
View
100
AcDbLine
 10
184.986433029
 20
90.311512947
 30
0.000000000
 11
185.725425720
 21
90.205263138
 31
0.000000000
  0
LINE
  5
A85
330
A02
100
AcDbEntity
  8
View
100
AcDbLine
 10
185.675672531
 20
102.806413651
 30
0.000000000
 11
184.986433029
 21
90.311512947
 31
0.000000000
  0
LINE
  5
A86
330
A02
100
AcDbEntity
  8
View
100
AcDbLine
 10
184.674327850
 20
102.806413651
 30
0.000000000
 11
184.986433029
 21
90.311512947
 31
0.000000000
  0
LINE
  5
A87
330
A02
100
AcDbEntity
  8
View
100
AcDbLine
 10
185.675672531
 20
102.806413651
 30
0.000000000
 11
184.674327850
 21
102.806413651
 31
0.000000000
  0
LINE
  5
A88
330
A02
100
AcDbEntity
  8
View
100
AcDbLine
 10
184.307309151
 20
90.001368523
 30
0.000000000
 11
184.986433029
 21
90.311512947
 31
0.000000000
  0
LINE
  5
A89
330
A02
100
AcDbEntity
  8
View
100
AcDbLine
 10
184.674327850
 20
102.806413651
 30
0.000000000
 11
184.307309151
 21
90.001368523
 31
0.000000000
  0
LINE
  5
A8A
330
A02
100
AcDbEntity
  8
View
100
AcDbLine
 10
183.772148132
 20
103.240879059
 30
0.000000000
 11
184.307309151
 21
90.001368523
 31
0.000000000
  0
LINE
  5
A8B
330
A02
100
AcDbEntity
  8
View
100
AcDbLine
 10
184.674327850
 20
102.806413651
 30
0.000000000
 11
183.772148132
 21
103.240879059
 31
0.000000000
  0
LINE
  5
A8C
330
A02
100
AcDbEntity
  8
View
100
AcDbLine
 10
163.500000000
 20
86.500000000
 30
0.000000000
 11
184.307309151
 21
90.001368523
 31
0.000000000
  0
LINE
  5
A8D
330
A02
100
AcDbEntity
  8
View
100
AcDbLine
 10
183.772148132
 20
103.240879059
 30
0.000000000
 11
163.500000000
 21
86.500000000
 31
0.000000000
  0
LINE
  5
A8E
330
A02
100
AcDbEntity
  8
View
100
AcDbLine
 10
183.147819519
 20
104.023761749
 30
0.000000000
 11
163.500000000
 21
86.500000000
 31
0.000000000
  0
LINE
  5
A8F
330
A02
100
AcDbEntity
  8
View
100
AcDbLine
 10
183.772148132
 20
103.240879059
 30
0.000000000
 11
183.147819519
 21
104.023761749
 31
0.000000000
  0
LINE
  5
A90
330
A02
100
AcDbEntity
  8
View
100
AcDbLine
 10
183.147819519
 20
104.023761749
 30
0.000000000
 11
182.925000191
 21
105.000000000
 31
0.000000000
  0
LINE
  5
A91
330
A02
100
AcDbEntity
  8
View
100
AcDbLine
 10
184.986433029
 20
119.688488007
 30
0.000000000
 11
184.307309151
 21
119.998630524
 31
0.000000000
  0
LINE
  5
A92
330
A02
100
AcDbEntity
  8
View
100
AcDbLine
 10
184.674327850
 20
107.193586349
 30
0.000000000
 11
184.986433029
 21
119.688488007
 31
0.000000000
  0
LINE
  5
A93
330
A02
100
AcDbEntity
  8
View
100
AcDbLine
 10
185.675672531
 20
107.193586349
 30
0.000000000
 11
184.986433029
 21
119.688488007
 31
0.000000000
  0
LINE
  5
A94
330
A02
100
AcDbEntity
  8
View
100
AcDbLine
 10
184.674327850
 20
107.193586349
 30
0.000000000
 11
185.675672531
 21
107.193586349
 31
0.000000000
  0
LINE
  5
A95
330
A02
100
AcDbEntity
  8
View
100
AcDbLine
 10
185.725425720
 20
119.794734955
 30
0.000000000
 11
184.986433029
 21
119.688488007
 31
0.000000000
  0
LINE
  5
A96
330
A02
100
AcDbEntity
  8
View
100
AcDbLine
 10
185.675672531
 20
107.193586349
 30
0.000000000
 11
185.725425720
 21
119.794734955
 31
0.000000000
  0
LINE
  5
A97
330
A02
100
AcDbEntity
  8
View
100
AcDbLine
 10
185.675672531
 20
107.193586349
 30
0.000000000
 11
186.577851295
 21
106.759120941
 31
0.000000000
  0
LINE
  5
A98
330
A02
100
AcDbEntity
  8
View
100
AcDbLine
 10
186.500000000
 20
121.000000000
 30
0.000000000
 11
186.289660454
 21
120.283653259
 31
0.000000000
  0
LINE
  5
A99
330
A02
100
AcDbEntity
  8
View
100
AcDbLine
 10
186.500000000
 20
89.000000000
 30
0.000000000
 11
186.289660454
 21
88.283651352
 31
0.000000000
  0
LINE
  5
A9A
330
A02
100
AcDbEntity
  8
View
100
AcDbLine
 10
186.289660454
 20
88.283651352
 30
0.000000000
 11
198.500000000
 21
82.674999714
 31
0.000000000
  0
LINE
  5
A9B
330
A02
100
AcDbEntity
  8
View
100
AcDbLine
 10
186.289660454
 20
88.283651352
 30
0.000000000
 11
185.725425720
 21
87.794737816
 31
0.000000000
  0
LINE
  5
A9C
330
A02
100
AcDbEntity
  8
View
100
AcDbLine
 10
183.903671265
 20
89.373294830
 30
0.000000000
 11
184.307309151
 21
90.001368523
 31
0.000000000
  0
LINE
  5
A9D
330
A02
100
AcDbEntity
  8
View
100
AcDbLine
 10
197.806681454
 20
129.912498474
 30
0.000000000
 11
193.325000286
 21
132.500000000
 31
0.000000000
  0
LINE
  5
A9E
330
A02
100
AcDbEntity
  8
View
100
AcDbLine
 10
196.984277606
 20
130.984275818
 30
0.000000000
 11
193.325000286
 21
132.500000000
 31
0.000000000
  0
LINE
  5
A9F
330
A02
100
AcDbEntity
  8
View
100
AcDbLine
 10
195.912500143
 20
131.806682587
 30
0.000000000
 11
193.325000286
 21
132.500000000
 31
0.000000000
  0
LINE
  5
AA0
330
A02
100
AcDbEntity
  8
View
100
AcDbLine
 10
103.675003052
 20
132.500000000
 30
0.000000000
 11
102.335609436
 21
132.323665619
 31
0.000000000
  0
LINE
  5
AA1
330
A02
100
AcDbEntity
  8
View
100
AcDbLine
 10
102.335609436
 20
132.323665619
 30
0.000000000
 11
101.087501526
 21
131.806682587
 31
0.000000000
  0
LINE
  5
AA2
330
A02
100
AcDbEntity
  8
View
100
AcDbLine
 10
101.087501526
 20
131.806682587
 30
0.000000000
 11
103.675003052
 21
132.500000000
 31
0.000000000
  0
LINE
  5
AA3
330
A02
100
AcDbEntity
  8
View
100
AcDbLine
 10
100.015724182
 20
130.984275818
 30
0.000000000
 11
103.675003052
 21
132.500000000
 31
0.000000000
  0
LINE
  5
AA4
330
A02
100
AcDbEntity
  8
View
100
AcDbLine
 10
101.087501526
 20
131.806682587
 30
0.000000000
 11
100.015724182
 21
130.984275818
 31
0.000000000
  0
LINE
  5
AA5
330
A02
100
AcDbEntity
  8
View
100
AcDbLine
 10
99.193321228
 20
129.912498474
 30
0.000000000
 11
103.675003052
 21
132.500000000
 31
0.000000000
  0
LINE
  5
AA6
330
A02
100
AcDbEntity
  8
View
100
AcDbLine
 10
100.015724182
 20
130.984275818
 30
0.000000000
 11
99.193321228
 21
129.912498474
 31
0.000000000
  0
LINE
  5
AA7
330
A02
100
AcDbEntity
  8
View
100
AcDbLine
 10
99.193321228
 20
129.912498474
 30
0.000000000
 11
98.676330566
 21
128.664390564
 31
0.000000000
  0
LINE
  5
AA8
330
A02
100
AcDbEntity
  8
View
100
AcDbLine
 10
98.676330566
 20
128.664390564
 30
0.000000000
 11
103.675003052
 21
132.500000000
 31
0.000000000
  0
LINE
  5
AA9
330
A02
100
AcDbEntity
  8
View
100
AcDbLine
 10
111.436431885
 20
122.311511993
 30
0.000000000
 11
103.675003052
 21
132.500000000
 31
0.000000000
  0
LINE
  5
AAA
330
A02
100
AcDbEntity
  8
View
100
AcDbLine
 10
98.676330566
 20
128.664390564
 30
0.000000000
 11
111.436431885
 21
122.311511993
 31
0.000000000
  0
LINE
  5
AAB
330
A02
100
AcDbEntity
  8
View
100
AcDbLine
 10
111.436431885
 20
122.311511993
 30
0.000000000
 11
112.175422668
 21
122.205261230
 31
0.000000000
  0
LINE
  5
AAC
330
A02
100
AcDbEntity
  8
View
100
AcDbLine
 10
98.676330566
 20
128.664390564
 30
0.000000000
 11
98.500000000
 21
127.325000763
 31
0.000000000
  0
LINE
  5
AAD
330
A02
100
AcDbEntity
  8
View
100
AcDbLine
 10
98.500000000
 20
127.325000763
 30
0.000000000
 11
111.436431885
 21
122.311511993
 31
0.000000000
  0
LINE
  5
AAE
330
A02
100
AcDbEntity
  8
View
100
AcDbLine
 10
110.757308960
 20
122.001365662
 30
0.000000000
 11
111.436431885
 21
122.311511993
 31
0.000000000
  0
LINE
  5
AAF
330
A02
100
AcDbEntity
  8
View
100
AcDbLine
 10
98.500000000
 20
127.325000763
 30
0.000000000
 11
110.757308960
 21
122.001365662
 31
0.000000000
  0
LINE
  5
AB0
330
A02
100
AcDbEntity
  8
View
100
AcDbLine
 10
110.353675842
 20
121.373294830
 30
0.000000000
 11
110.757308960
 21
122.001365662
 31
0.000000000
  0
LINE
  5
AB1
330
A02
100
AcDbEntity
  8
View
100
AcDbLine
 10
98.500000000
 20
127.325000763
 30
0.000000000
 11
110.353675842
 21
121.373294830
 31
0.000000000
  0
LINE
  5
AB2
330
A02
100
AcDbEntity
  8
View
100
AcDbLine
 10
110.353675842
 20
120.626701355
 30
0.000000000
 11
110.353675842
 21
121.373294830
 31
0.000000000
  0
LINE
  5
AB3
330
A02
100
AcDbEntity
  8
View
100
AcDbLine
 10
98.500000000
 20
127.325000763
 30
0.000000000
 11
110.353675842
 21
120.626701355
 31
0.000000000
  0
LINE
  5
AB4
330
A02
100
AcDbEntity
  8
View
100
AcDbLine
 10
110.757308960
 20
119.998630524
 30
0.000000000
 11
110.353675842
 21
120.626701355
 31
0.000000000
  0
LINE
  5
AB5
330
A02
100
AcDbEntity
  8
View
100
AcDbLine
 10
98.500000000
 20
127.325000763
 30
0.000000000
 11
110.757308960
 21
119.998630524
 31
0.000000000
  0
LINE
  5
AB6
330
A02
100
AcDbEntity
  8
View
100
AcDbLine
 10
110.222145081
 20
106.759120941
 30
0.000000000
 11
110.757308960
 21
119.998630524
 31
0.000000000
  0
LINE
  5
AB7
330
A02
100
AcDbEntity
  8
View
100
AcDbLine
 10
98.500000000
 20
127.325000763
 30
0.000000000
 11
110.222145081
 21
106.759120941
 31
0.000000000
  0
LINE
  5
AB8
330
A02
100
AcDbEntity
  8
View
100
AcDbLine
 10
111.124328613
 20
107.193586349
 30
0.000000000
 11
110.757308960
 21
119.998630524
 31
0.000000000
  0
LINE
  5
AB9
330
A02
100
AcDbEntity
  8
View
100
AcDbLine
 10
110.222145081
 20
106.759120941
 30
0.000000000
 11
111.124328613
 21
107.193586349
 31
0.000000000
  0
LINE
  5
ABA
330
A02
100
AcDbEntity
  8
View
100
AcDbLine
 10
98.500000000
 20
127.325000763
 30
0.000000000
 11
98.500000000
 21
82.674999714
 31
0.000000000
  0
LINE
  5
ABB
330
A02
100
AcDbEntity
  8
View
100
AcDbLine
 10
98.500000000
 20
82.674999714
 30
0.000000000
 11
109.375000000
 21
105.000000000
 31
0.000000000
  0
LINE
  5
ABC
330
A02
100
AcDbEntity
  8
View
100
AcDbLine
 10
109.375000000
 20
105.000000000
 30
0.000000000
 11
98.500000000
 21
127.325000763
 31
0.000000000
  0
LINE
  5
ABD
330
A02
100
AcDbEntity
  8
View
100
AcDbLine
 10
109.597824097
 20
105.976238251
 30
0.000000000
 11
98.500000000
 21
127.325000763
 31
0.000000000
  0
LINE
  5
ABE
330
A02
100
AcDbEntity
  8
View
100
AcDbLine
 10
109.375000000
 20
105.000000000
 30
0.000000000
 11
109.597824097
 21
105.976238251
 31
0.000000000
  0
LINE
  5
ABF
330
A02
100
AcDbEntity
  8
View
100
AcDbLine
 10
109.597824097
 20
105.976238251
 30
0.000000000
 11
110.222145081
 21
106.759120941
 31
0.000000000
  0
LINE
  5
AC0
330
A02
100
AcDbEntity
  8
View
100
AcDbLine
 10
98.500000000
 20
82.674999714
 30
0.000000000
 11
98.676330566
 21
81.335611343
 31
0.000000000
  0
LINE
  5
AC1
330
A02
100
AcDbEntity
  8
View
100
AcDbLine
 10
98.676330566
 20
81.335611343
 30
0.000000000
 11
111.436431885
 21
87.688486099
 31
0.000000000
  0
LINE
  5
AC2
330
A02
100
AcDbEntity
  8
View
100
AcDbLine
 10
111.436431885
 20
87.688486099
 30
0.000000000
 11
98.500000000
 21
82.674999714
 31
0.000000000
  0
LINE
  5
AC3
330
A02
100
AcDbEntity
  8
View
100
AcDbLine
 10
110.757308960
 20
87.998632431
 30
0.000000000
 11
98.500000000
 21
82.674999714
 31
0.000000000
  0
LINE
  5
AC4
330
A02
100
AcDbEntity
  8
View
100
AcDbLine
 10
111.436431885
 20
87.688486099
 30
0.000000000
 11
110.757308960
 21
87.998632431
 31
0.000000000
  0
LINE
  5
AC5
330
A02
100
AcDbEntity
  8
View
100
AcDbLine
 10
110.353675842
 20
88.626704216
 30
0.000000000
 11
98.500000000
 21
82.674999714
 31
0.000000000
  0
LINE
  5
AC6
330
A02
100
AcDbEntity
  8
View
100
AcDbLine
 10
110.757308960
 20
87.998632431
 30
0.000000000
 11
110.353675842
 21
88.626704216
 31
0.000000000
  0
LINE
  5
AC7
330
A02
100
AcDbEntity
  8
View
100
AcDbLine
 10
98.676330566
 20
81.335611343
 30
0.000000000
 11
103.675003052
 21
77.500000000
 31
0.000000000
  0
LINE
  5
AC8
330
A02
100
AcDbEntity
  8
View
100
AcDbLine
 10
99.193321228
 20
80.087499857
 30
0.000000000
 11
103.675003052
 21
77.500000000
 31
0.000000000
  0
LINE
  5
AC9
330
A02
100
AcDbEntity
  8
View
100
AcDbLine
 10
98.676330566
 20
81.335611343
 30
0.000000000
 11
99.193321228
 21
80.087499857
 31
0.000000000
  0
LINE
  5
ACA
330
A02
100
AcDbEntity
  8
View
100
AcDbLine
 10
100.015724182
 20
79.015722394
 30
0.000000000
 11
103.675003052
 21
77.500000000
 31
0.000000000
  0
LINE
  5
ACB
330
A02
100
AcDbEntity
  8
View
100
AcDbLine
 10
99.193321228
 20
80.087499857
 30
0.000000000
 11
100.015724182
 21
79.015722394
 31
0.000000000
  0
LINE
  5
ACC
330
A02
100
AcDbEntity
  8
View
100
AcDbLine
 10
100.015724182
 20
79.015722394
 30
0.000000000
 11
101.087501526
 21
78.193318546
 31
0.000000000
  0
LINE
  5
ACD
330
A02
100
AcDbEntity
  8
View
100
AcDbLine
 10
101.087501526
 20
78.193318546
 30
0.000000000
 11
103.675003052
 21
77.500000000
 31
0.000000000
  0
LINE
  5
ACE
330
A02
100
AcDbEntity
  8
View
100
AcDbLine
 10
102.335609436
 20
77.676333845
 30
0.000000000
 11
103.675003052
 21
77.500000000
 31
0.000000000
  0
LINE
  5
ACF
330
A02
100
AcDbEntity
  8
View
100
AcDbLine
 10
101.087501526
 20
78.193318546
 30
0.000000000
 11
102.335609436
 21
77.676333845
 31
0.000000000
  0
LINE
  5
AD0
330
A02
100
AcDbEntity
  8
View
100
AcDbLine
 10
193.325000286
 20
77.500000000
 30
0.000000000
 11
194.664388657
 21
77.676333845
 31
0.000000000
  0
LINE
  5
AD1
330
A02
100
AcDbEntity
  8
View
100
AcDbLine
 10
194.664388657
 20
77.676333845
 30
0.000000000
 11
195.912500143
 21
78.193318546
 31
0.000000000
  0
LINE
  5
AD2
330
A02
100
AcDbEntity
  8
View
100
AcDbLine
 10
195.912500143
 20
78.193318546
 30
0.000000000
 11
193.325000286
 21
77.500000000
 31
0.000000000
  0
LINE
  5
AD3
330
A02
100
AcDbEntity
  8
View
100
AcDbLine
 10
196.984277606
 20
79.015722394
 30
0.000000000
 11
193.325000286
 21
77.500000000
 31
0.000000000
  0
LINE
  5
AD4
330
A02
100
AcDbEntity
  8
View
100
AcDbLine
 10
195.912500143
 20
78.193318546
 30
0.000000000
 11
196.984277606
 21
79.015722394
 31
0.000000000
  0
LINE
  5
AD5
330
A02
100
AcDbEntity
  8
View
100
AcDbLine
 10
197.806681454
 20
80.087499857
 30
0.000000000
 11
193.325000286
 21
77.500000000
 31
0.000000000
  0
LINE
  5
AD6
330
A02
100
AcDbEntity
  8
View
100
AcDbLine
 10
196.984277606
 20
79.015722394
 30
0.000000000
 11
197.806681454
 21
80.087499857
 31
0.000000000
  0
LINE
  5
AD7
330
A02
100
AcDbEntity
  8
View
100
AcDbLine
 10
197.806681454
 20
80.087499857
 30
0.000000000
 11
198.323666155
 21
81.335611343
 31
0.000000000
  0
LINE
  5
AD8
330
A02
100
AcDbEntity
  8
View
100
AcDbLine
 10
111.436431885
 20
90.311512947
 30
0.000000000
 11
112.175422668
 21
90.205263138
 31
0.000000000
  0
LINE
  5
AD9
330
A02
100
AcDbEntity
  8
View
100
AcDbLine
 10
112.125671387
 20
102.806413651
 30
0.000000000
 11
111.436431885
 21
90.311512947
 31
0.000000000
  0
LINE
  5
ADA
330
A02
100
AcDbEntity
  8
View
100
AcDbLine
 10
111.124328613
 20
102.806413651
 30
0.000000000
 11
111.436431885
 21
90.311512947
 31
0.000000000
  0
LINE
  5
ADB
330
A02
100
AcDbEntity
  8
View
100
AcDbLine
 10
112.125671387
 20
102.806413651
 30
0.000000000
 11
111.124328613
 21
102.806413651
 31
0.000000000
  0
LINE
  5
ADC
330
A02
100
AcDbEntity
  8
View
100
AcDbLine
 10
110.757308960
 20
90.001368523
 30
0.000000000
 11
111.436431885
 21
90.311512947
 31
0.000000000
  0
LINE
  5
ADD
330
A02
100
AcDbEntity
  8
View
100
AcDbLine
 10
111.124328613
 20
102.806413651
 30
0.000000000
 11
110.757308960
 21
90.001368523
 31
0.000000000
  0
LINE
  5
ADE
330
A02
100
AcDbEntity
  8
View
100
AcDbLine
 10
110.222145081
 20
103.240879059
 30
0.000000000
 11
110.757308960
 21
90.001368523
 31
0.000000000
  0
LINE
  5
ADF
330
A02
100
AcDbEntity
  8
View
100
AcDbLine
 10
111.124328613
 20
102.806413651
 30
0.000000000
 11
110.222145081
 21
103.240879059
 31
0.000000000
  0
LINE
  5
AE0
330
A02
100
AcDbEntity
  8
View
100
AcDbLine
 10
98.500000000
 20
82.674999714
 30
0.000000000
 11
110.757308960
 21
90.001368523
 31
0.000000000
  0
LINE
  5
AE1
330
A02
100
AcDbEntity
  8
View
100
AcDbLine
 10
110.222145081
 20
103.240879059
 30
0.000000000
 11
98.500000000
 21
82.674999714
 31
0.000000000
  0
LINE
  5
AE2
330
A02
100
AcDbEntity
  8
View
100
AcDbLine
 10
109.597824097
 20
104.023761749
 30
0.000000000
 11
98.500000000
 21
82.674999714
 31
0.000000000
  0
LINE
  5
AE3
330
A02
100
AcDbEntity
  8
View
100
AcDbLine
 10
110.222145081
 20
103.240879059
 30
0.000000000
 11
109.597824097
 21
104.023761749
 31
0.000000000
  0
LINE
  5
AE4
330
A02
100
AcDbEntity
  8
View
100
AcDbLine
 10
109.597824097
 20
104.023761749
 30
0.000000000
 11
109.375000000
 21
105.000000000
 31
0.000000000
  0
LINE
  5
AE5
330
A02
100
AcDbEntity
  8
View
100
AcDbLine
 10
111.436431885
 20
119.688488007
 30
0.000000000
 11
110.757308960
 21
119.998630524
 31
0.000000000
  0
LINE
  5
AE6
330
A02
100
AcDbEntity
  8
View
100
AcDbLine
 10
111.124328613
 20
107.193586349
 30
0.000000000
 11
111.436431885
 21
119.688488007
 31
0.000000000
  0
LINE
  5
AE7
330
A02
100
AcDbEntity
  8
View
100
AcDbLine
 10
112.125671387
 20
107.193586349
 30
0.000000000
 11
111.436431885
 21
119.688488007
 31
0.000000000
  0
LINE
  5
AE8
330
A02
100
AcDbEntity
  8
View
100
AcDbLine
 10
111.124328613
 20
107.193586349
 30
0.000000000
 11
112.125671387
 21
107.193586349
 31
0.000000000
  0
LINE
  5
AE9
330
A02
100
AcDbEntity
  8
View
100
AcDbLine
 10
112.175422668
 20
119.794734955
 30
0.000000000
 11
111.436431885
 21
119.688488007
 31
0.000000000
  0
LINE
  5
AEA
330
A02
100
AcDbEntity
  8
View
100
AcDbLine
 10
112.125671387
 20
107.193586349
 30
0.000000000
 11
112.175422668
 21
119.794734955
 31
0.000000000
  0
LINE
  5
AEB
330
A02
100
AcDbEntity
  8
View
100
AcDbLine
 10
113.027854919
 20
106.759120941
 30
0.000000000
 11
112.175422668
 21
119.794734955
 31
0.000000000
  0
LINE
  5
AEC
330
A02
100
AcDbEntity
  8
View
100
AcDbLine
 10
112.125671387
 20
107.193586349
 30
0.000000000
 11
113.027854919
 21
106.759120941
 31
0.000000000
  0
LINE
  5
AED
330
A02
100
AcDbEntity
  8
View
100
AcDbLine
 10
133.300003052
 20
123.500000000
 30
0.000000000
 11
112.175422668
 21
119.794734955
 31
0.000000000
  0
LINE
  5
AEE
330
A02
100
AcDbEntity
  8
View
100
AcDbLine
 10
113.027854919
 20
106.759120941
 30
0.000000000
 11
133.300003052
 21
123.500000000
 31
0.000000000
  0
LINE
  5
AEF
330
A02
100
AcDbEntity
  8
View
100
AcDbLine
 10
113.652175903
 20
105.976238251
 30
0.000000000
 11
133.300003052
 21
123.500000000
 31
0.000000000
  0
LINE
  5
AF0
330
A02
100
AcDbEntity
  8
View
100
AcDbLine
 10
113.027854919
 20
106.759120941
 30
0.000000000
 11
113.652175903
 21
105.976238251
 31
0.000000000
  0
LINE
  5
AF1
330
A02
100
AcDbEntity
  8
View
100
AcDbLine
 10
113.652175903
 20
105.976238251
 30
0.000000000
 11
113.875000000
 21
105.000000000
 31
0.000000000
  0
LINE
  5
AF2
330
A02
100
AcDbEntity
  8
View
100
AcDbLine
 10
110.353675842
 20
88.626704216
 30
0.000000000
 11
110.353675842
 21
89.373294830
 31
0.000000000
  0
LINE
  5
AF3
330
A02
100
AcDbEntity
  8
View
100
AcDbLine
 10
110.353675842
 20
89.373294830
 30
0.000000000
 11
98.500000000
 21
82.674999714
 31
0.000000000
  0
LINE
  5
AF4
330
A02
100
AcDbEntity
  8
View
100
AcDbLine
 10
110.353675842
 20
89.373294830
 30
0.000000000
 11
110.757308960
 21
90.001368523
 31
0.000000000
  0
LINE
  5
AF5
330
A02
100
AcDbEntity
  8
View
100
AcDbLine
 10
112.739662170
 20
120.283653259
 30
0.000000000
 11
112.175422668
 21
119.794734955
 31
0.000000000
  0
LINE
  5
AF6
330
A02
100
AcDbEntity
  8
View
100
AcDbLine
 10
141.400001526
 20
102.547565460
 30
0.000000000
 11
141.400001526
 21
88.547563553
 31
0.000000000
  0
LINE
  5
AF7
330
A02
100
AcDbEntity
  8
View
100
AcDbLine
 10
155.400001526
 20
102.547565460
 30
0.000000000
 11
141.400001526
 21
102.547565460
 31
0.000000000
  0
LINE
  5
AF8
330
A02
100
AcDbEntity
  8
View
100
AcDbLine
 10
155.400001526
 20
88.547563553
 30
0.000000000
 11
155.400001526
 21
102.547565460
 31
0.000000000
  0
LINE
  5
AF9
330
A02
100
AcDbEntity
  8
View
100
AcDbLine
 10
141.400001526
 20
88.547563553
 30
0.000000000
 11
155.400001526
 21
88.547563553
 31
0.000000000
  0
LINE
  5
AFA
330
A02
100
AcDbEntity
  8
View
100
AcDbLine
 10
141.400001526
 20
107.500000000
 30
0.000000000
 11
155.400001526
 21
107.500000000
 31
0.000000000
  0
LINE
  5
AFB
330
A02
100
AcDbEntity
  8
View
100
AcDbLine
 10
141.400001526
 20
121.500000000
 30
0.000000000
 11
141.400001526
 21
107.500000000
 31
0.000000000
  0
LINE
  5
AFC
330
A02
100
AcDbEntity
  8
View
100
AcDbLine
 10
155.400001526
 20
121.500000000
 30
0.000000000
 11
141.400001526
 21
121.500000000
 31
0.000000000
  0
LINE
  5
AFD
330
A02
100
AcDbEntity
  8
View
100
AcDbLine
 10
155.400001526
 20
107.500000000
 30
0.000000000
 11
155.400001526
 21
121.500000000
 31
0.000000000
  0
LINE
  5
AFE
330
A02
100
AcDbEntity
  8
View
100
AcDbLine
 10
135.299999237
 20
84.500000000
 30
0.000000000
 11
134.534629822
 21
84.652240753
 31
0.000000000
  0
LINE
  5
AFF
330
A02
100
AcDbEntity
  8
View
100
AcDbLine
 10
134.534629822
 20
84.652240753
 30
0.000000000
 11
133.885787964
 21
85.085786819
 31
0.000000000
  0
LINE
  5
B00
330
A02
100
AcDbEntity
  8
View
100
AcDbLine
 10
133.885787964
 20
85.085786819
 30
0.000000000
 11
133.452239990
 21
85.734633446
 31
0.000000000
  0
LINE
  5
B01
330
A02
100
AcDbEntity
  8
View
100
AcDbLine
 10
133.452239990
 20
85.734633446
 30
0.000000000
 11
133.300003052
 21
86.500000000
 31
0.000000000
  0
LINE
  5
B02
330
A02
100
AcDbEntity
  8
View
100
AcDbLine
 10
141.400001526
 20
102.547565460
 30
0.000000000
 11
133.300003052
 21
86.500000000
 31
0.000000000
  0
LINE
  5
B03
330
A02
100
AcDbEntity
  8
View
100
AcDbLine
 10
133.300003052
 20
86.500000000
 30
0.000000000
 11
141.400001526
 21
88.547563553
 31
0.000000000
  0
LINE
  5
B04
330
A02
100
AcDbEntity
  8
View
100
AcDbLine
 10
135.299999237
 20
84.500000000
 30
0.000000000
 11
141.400001526
 21
88.547563553
 31
0.000000000
  0
LINE
  5
B05
330
A02
100
AcDbEntity
  8
View
100
AcDbLine
 10
133.300003052
 20
86.500000000
 30
0.000000000
 11
135.299999237
 21
84.500000000
 31
0.000000000
  0
LINE
  5
B06
330
A02
100
AcDbEntity
  8
View
100
AcDbLine
 10
161.500000000
 20
84.500000000
 30
0.000000000
 11
141.400001526
 21
88.547563553
 31
0.000000000
  0
LINE
  5
B07
330
A02
100
AcDbEntity
  8
View
100
AcDbLine
 10
135.299999237
 20
84.500000000
 30
0.000000000
 11
161.500000000
 21
84.500000000
 31
0.000000000
  0
LINE
  5
B08
330
A02
100
AcDbEntity
  8
View
100
AcDbLine
 10
155.400001526
 20
102.547565460
 30
0.000000000
 11
155.400001526
 21
107.500000000
 31
0.000000000
  0
LINE
  5
B09
330
A02
100
AcDbEntity
  8
View
100
AcDbLine
 10
155.400001526
 20
107.500000000
 30
0.000000000
 11
141.400001526
 21
102.547565460
 31
0.000000000
  0
LINE
  5
B0A
330
A02
100
AcDbEntity
  8
View
100
AcDbLine
 10
141.400001526
 20
107.500000000
 30
0.000000000
 11
141.400001526
 21
102.547565460
 31
0.000000000
  0
LINE
  5
B0B
330
A02
100
AcDbEntity
  8
View
100
AcDbLine
 10
133.300003052
 20
123.500000000
 30
0.000000000
 11
141.400001526
 21
102.547565460
 31
0.000000000
  0
LINE
  5
B0C
330
A02
100
AcDbEntity
  8
View
100
AcDbLine
 10
141.400001526
 20
107.500000000
 30
0.000000000
 11
133.300003052
 21
123.500000000
 31
0.000000000
  0
LINE
  5
B0D
330
A02
100
AcDbEntity
  8
View
100
AcDbLine
 10
141.400001526
 20
121.500000000
 30
0.000000000
 11
133.300003052
 21
123.500000000
 31
0.000000000
  0
LINE
  5
B0E
330
A02
100
AcDbEntity
  8
View
100
AcDbLine
 10
135.299999237
 20
125.500000000
 30
0.000000000
 11
133.300003052
 21
123.500000000
 31
0.000000000
  0
LINE
  5
B0F
330
A02
100
AcDbEntity
  8
View
100
AcDbLine
 10
141.400001526
 20
121.500000000
 30
0.000000000
 11
135.299999237
 21
125.500000000
 31
0.000000000
  0
LINE
  5
B10
330
A02
100
AcDbEntity
  8
View
100
AcDbLine
 10
161.500000000
 20
125.500000000
 30
0.000000000
 11
135.299999237
 21
125.500000000
 31
0.000000000
  0
LINE
  5
B11
330
A02
100
AcDbEntity
  8
View
100
AcDbLine
 10
141.400001526
 20
121.500000000
 30
0.000000000
 11
161.500000000
 21
125.500000000
 31
0.000000000
  0
LINE
  5
B12
330
A02
100
AcDbEntity
  8
View
100
AcDbLine
 10
155.400001526
 20
121.500000000
 30
0.000000000
 11
161.500000000
 21
125.500000000
 31
0.000000000
  0
LINE
  5
B13
330
A02
100
AcDbEntity
  8
View
100
AcDbLine
 10
163.500000000
 20
123.500000000
 30
0.000000000
 11
161.500000000
 21
125.500000000
 31
0.000000000
  0
LINE
  5
B14
330
A02
100
AcDbEntity
  8
View
100
AcDbLine
 10
155.400001526
 20
121.500000000
 30
0.000000000
 11
163.500000000
 21
123.500000000
 31
0.000000000
  0
LINE
  5
B15
330
A02
100
AcDbEntity
  8
View
100
AcDbLine
 10
155.400001526
 20
107.500000000
 30
0.000000000
 11
163.500000000
 21
123.500000000
 31
0.000000000
  0
LINE
  5
B16
330
A02
100
AcDbEntity
  8
View
100
AcDbLine
 10
155.400001526
 20
102.547565460
 30
0.000000000
 11
163.500000000
 21
123.500000000
 31
0.000000000
  0
LINE
  5
B17
330
A02
100
AcDbEntity
  8
View
100
AcDbLine
 10
163.500000000
 20
86.500000000
 30
0.000000000
 11
163.500000000
 21
123.500000000
 31
0.000000000
  0
LINE
  5
B18
330
A02
100
AcDbEntity
  8
View
100
AcDbLine
 10
155.400001526
 20
102.547565460
 30
0.000000000
 11
163.500000000
 21
86.500000000
 31
0.000000000
  0
LINE
  5
B19
330
A02
100
AcDbEntity
  8
View
100
AcDbLine
 10
155.400001526
 20
88.547563553
 30
0.000000000
 11
163.500000000
 21
86.500000000
 31
0.000000000
  0
LINE
  5
B1A
330
A02
100
AcDbEntity
  8
View
100
AcDbLine
 10
161.500000000
 20
84.500000000
 30
0.000000000
 11
163.500000000
 21
86.500000000
 31
0.000000000
  0
LINE
  5
B1B
330
A02
100
AcDbEntity
  8
View
100
AcDbLine
 10
155.400001526
 20
88.547563553
 30
0.000000000
 11
161.500000000
 21
84.500000000
 31
0.000000000
  0
LINE
  5
B1C
330
A02
100
AcDbEntity
  8
View
100
AcDbLine
 10
133.885787964
 20
85.085786819
 30
0.000000000
 11
133.300003052
 21
86.500000000
 31
0.000000000
  0
LINE
  5
B1D
330
A02
100
AcDbEntity
  8
View
100
AcDbLine
 10
134.534629822
 20
84.652240753
 30
0.000000000
 11
133.300003052
 21
86.500000000
 31
0.000000000
  0
LINE
  5
B1E
330
A02
100
AcDbEntity
  8
View
100
AcDbLine
 10
161.500000000
 20
84.500000000
 30
0.000000000
 11
162.265365601
 21
84.652240753
 31
0.000000000
  0
LINE
  5
B1F
330
A02
100
AcDbEntity
  8
View
100
AcDbLine
 10
162.265365601
 20
84.652240753
 30
0.000000000
 11
163.500000000
 21
86.500000000
 31
0.000000000
  0
LINE
  5
B20
330
A02
100
AcDbEntity
  8
View
100
AcDbLine
 10
162.914211273
 20
85.085786819
 30
0.000000000
 11
163.500000000
 21
86.500000000
 31
0.000000000
  0
LINE
  5
B21
330
A02
100
AcDbEntity
  8
View
100
AcDbLine
 10
162.265365601
 20
84.652240753
 30
0.000000000
 11
162.914211273
 21
85.085786819
 31
0.000000000
  0
LINE
  5
B22
330
A02
100
AcDbEntity
  8
View
100
AcDbLine
 10
163.347759247
 20
85.734633446
 30
0.000000000
 11
163.500000000
 21
86.500000000
 31
0.000000000
  0
LINE
  5
B23
330
A02
100
AcDbEntity
  8
View
100
AcDbLine
 10
162.914211273
 20
85.085786819
 30
0.000000000
 11
163.347759247
 21
85.734633446
 31
0.000000000
  0
LINE
  5
B24
330
A02
100
AcDbEntity
  8
View
100
AcDbLine
 10
163.500000000
 20
123.500000000
 30
0.000000000
 11
163.347759247
 21
124.265365601
 31
0.000000000
  0
LINE
  5
B25
330
A02
100
AcDbEntity
  8
View
100
AcDbLine
 10
163.347759247
 20
124.265365601
 30
0.000000000
 11
162.914211273
 21
124.914211273
 31
0.000000000
  0
LINE
  5
B26
330
A02
100
AcDbEntity
  8
View
100
AcDbLine
 10
162.914211273
 20
124.914211273
 30
0.000000000
 11
163.500000000
 21
123.500000000
 31
0.000000000
  0
LINE
  5
B27
330
A02
100
AcDbEntity
  8
View
100
AcDbLine
 10
162.265365601
 20
125.347755432
 30
0.000000000
 11
163.500000000
 21
123.500000000
 31
0.000000000
  0
LINE
  5
B28
330
A02
100
AcDbEntity
  8
View
100
AcDbLine
 10
162.914211273
 20
124.914211273
 30
0.000000000
 11
162.265365601
 21
125.347755432
 31
0.000000000
  0
LINE
  5
B29
330
A02
100
AcDbEntity
  8
View
100
AcDbLine
 10
162.265365601
 20
125.347755432
 30
0.000000000
 11
161.500000000
 21
125.500000000
 31
0.000000000
  0
LINE
  5
B2A
330
A02
100
AcDbEntity
  8
View
100
AcDbLine
 10
135.299999237
 20
125.500000000
 30
0.000000000
 11
134.534629822
 21
125.347755432
 31
0.000000000
  0
LINE
  5
B2B
330
A02
100
AcDbEntity
  8
View
100
AcDbLine
 10
134.534629822
 20
125.347755432
 30
0.000000000
 11
133.300003052
 21
123.500000000
 31
0.000000000
  0
LINE
  5
B2C
330
A02
100
AcDbEntity
  8
View
100
AcDbLine
 10
133.885787964
 20
124.914211273
 30
0.000000000
 11
133.300003052
 21
123.500000000
 31
0.000000000
  0
LINE
  5
B2D
330
A02
100
AcDbEntity
  8
View
100
AcDbLine
 10
134.534629822
 20
125.347755432
 30
0.000000000
 11
133.885787964
 21
124.914211273
 31
0.000000000
  0
LINE
  5
B2E
330
A02
100
AcDbEntity
  8
View
100
AcDbLine
 10
133.452239990
 20
124.265365601
 30
0.000000000
 11
133.300003052
 21
123.500000000
 31
0.000000000
  0
LINE
  5
B2F
330
A02
100
AcDbEntity
  8
View
100
AcDbLine
 10
133.885787964
 20
124.914211273
 30
0.000000000
 11
133.452239990
 21
124.265365601
 31
0.000000000
  0
LINE
  5
B30
330
A02
100
AcDbEntity
  8
View
100
AcDbLine
 10
133.300003052
 20
123.500000000
 30
0.000000000
 11
133.300003052
 21
86.500000000
 31
0.000000000
  0
LINE
  5
B31
330
A02
100
AcDbEntity
  8
ProjItem
100
AcDbLine
 10
212.335611343
 20
132.323665619
 30
0.000000000
 11
213.674999714
 21
132.500000000
 31
0.000000000
  0
LINE
  5
B32
330
A02
100
AcDbEntity
  8
ProjItem
100
AcDbLine
 10
211.087499857
 20
131.806682587
 30
0.000000000
 11
212.335611343
 21
132.323665619
 31
0.000000000
  0
LINE
  5
B33
330
A02
100
AcDbEntity
  8
ProjItem
100
AcDbLine
 10
210.015722394
 20
130.984275818
 30
0.000000000
 11
211.087499857
 21
131.806682587
 31
0.000000000
  0
LINE
  5
B34
330
A02
100
AcDbEntity
  8
ProjItem
100
AcDbLine
 10
209.193318546
 20
129.912498474
 30
0.000000000
 11
210.015722394
 21
130.984275818
 31
0.000000000
  0
LINE
  5
B35
330
A02
100
AcDbEntity
  8
ProjItem
100
AcDbLine
 10
208.676333845
 20
128.664390564
 30
0.000000000
 11
209.193318546
 21
129.912498474
 31
0.000000000
  0
LINE
  5
B36
330
A02
100
AcDbEntity
  8
ProjItem
100
AcDbLine
 10
208.500000000
 20
127.325000763
 30
0.000000000
 11
208.676333845
 21
128.664390564
 31
0.000000000
  0
LINE
  5
B37
330
A02
100
AcDbEntity
  8
ProjItem
100
AcDbLine
 10
213.674999714
 20
132.500000000
 30
0.000000000
 11
303.324996948
 21
132.500000000
 31
0.000000000
  0
LINE
  5
B38
330
A02
100
AcDbEntity
  8
ProjItem
100
AcDbLine
 10
308.323669434
 20
128.664390564
 30
0.000000000
 11
308.500000000
 21
127.325000763
 31
0.000000000
  0
LINE
  5
B39
330
A02
100
AcDbEntity
  8
ProjItem
100
AcDbLine
 10
307.806678772
 20
129.912498474
 30
0.000000000
 11
308.323669434
 21
128.664390564
 31
0.000000000
  0
LINE
  5
B3A
330
A02
100
AcDbEntity
  8
ProjItem
100
AcDbLine
 10
306.984275818
 20
130.984275818
 30
0.000000000
 11
307.806678772
 21
129.912498474
 31
0.000000000
  0
LINE
  5
B3B
330
A02
100
AcDbEntity
  8
ProjItem
100
AcDbLine
 10
305.912498474
 20
131.806682587
 30
0.000000000
 11
306.984275818
 21
130.984275818
 31
0.000000000
  0
LINE
  5
B3C
330
A02
100
AcDbEntity
  8
ProjItem
100
AcDbLine
 10
304.664390564
 20
132.323665619
 30
0.000000000
 11
305.912498474
 21
131.806682587
 31
0.000000000
  0
LINE
  5
B3D
330
A02
100
AcDbEntity
  8
ProjItem
100
AcDbLine
 10
303.324996948
 20
132.500000000
 30
0.000000000
 11
304.664390564
 21
132.323665619
 31
0.000000000
  0
LINE
  5
B3E
330
A02
100
AcDbEntity
  8
ProjItem
100
AcDbLine
 10
304.664390564
 20
77.676333845
 30
0.000000000
 11
303.324996948
 21
77.500000000
 31
0.000000000
  0
LINE
  5
B3F
330
A02
100
AcDbEntity
  8
ProjItem
100
AcDbLine
 10
305.912498474
 20
78.193318546
 30
0.000000000
 11
304.664390564
 21
77.676333845
 31
0.000000000
  0
LINE
  5
B40
330
A02
100
AcDbEntity
  8
ProjItem
100
AcDbLine
 10
306.984275818
 20
79.015722394
 30
0.000000000
 11
305.912498474
 21
78.193318546
 31
0.000000000
  0
LINE
  5
B41
330
A02
100
AcDbEntity
  8
ProjItem
100
AcDbLine
 10
307.806678772
 20
80.087499857
 30
0.000000000
 11
306.984275818
 21
79.015722394
 31
0.000000000
  0
LINE
  5
B42
330
A02
100
AcDbEntity
  8
ProjItem
100
AcDbLine
 10
308.323669434
 20
81.335611343
 30
0.000000000
 11
307.806678772
 21
80.087499857
 31
0.000000000
  0
LINE
  5
B43
330
A02
100
AcDbEntity
  8
ProjItem
100
AcDbLine
 10
308.500000000
 20
82.674999714
 30
0.000000000
 11
308.323669434
 21
81.335611343
 31
0.000000000
  0
LINE
  5
B44
330
A02
100
AcDbEntity
  8
ProjItem
100
AcDbLine
 10
303.324996948
 20
77.500000000
 30
0.000000000
 11
213.674999714
 21
77.500000000
 31
0.000000000
  0
LINE
  5
B45
330
A02
100
AcDbEntity
  8
ProjItem
100
AcDbLine
 10
208.676333845
 20
81.335611343
 30
0.000000000
 11
208.500000000
 21
82.674999714
 31
0.000000000
  0
LINE
  5
B46
330
A02
100
AcDbEntity
  8
ProjItem
100
AcDbLine
 10
209.193318546
 20
80.087499857
 30
0.000000000
 11
208.676333845
 21
81.335611343
 31
0.000000000
  0
LINE
  5
B47
330
A02
100
AcDbEntity
  8
ProjItem
100
AcDbLine
 10
210.015722394
 20
79.015722394
 30
0.000000000
 11
209.193318546
 21
80.087499857
 31
0.000000000
  0
LINE
  5
B48
330
A02
100
AcDbEntity
  8
ProjItem
100
AcDbLine
 10
211.087499857
 20
78.193318546
 30
0.000000000
 11
210.015722394
 21
79.015722394
 31
0.000000000
  0
LINE
  5
B49
330
A02
100
AcDbEntity
  8
ProjItem
100
AcDbLine
 10
212.335611343
 20
77.676333845
 30
0.000000000
 11
211.087499857
 21
78.193318546
 31
0.000000000
  0
LINE
  5
B4A
330
A02
100
AcDbEntity
  8
ProjItem
100
AcDbLine
 10
213.674999714
 20
77.500000000
 30
0.000000000
 11
212.335611343
 21
77.676333845
 31
0.000000000
  0
LINE
  5
B4B
330
A02
100
AcDbEntity
  8
ProjItem
100
AcDbLine
 10
265.599998474
 20
88.547563553
 30
0.000000000
 11
265.599998474
 21
102.547565460
 31
0.000000000
  0
LINE
  5
B4C
330
A02
100
AcDbEntity
  8
ProjItem
100
AcDbLine
 10
265.599998474
 20
102.547565460
 30
0.000000000
 11
251.599998474
 21
102.547565460
 31
0.000000000
  0
LINE
  5
B4D
330
A02
100
AcDbEntity
  8
ProjItem
100
AcDbLine
 10
251.599998474
 20
102.547565460
 30
0.000000000
 11
251.599998474
 21
88.547563553
 31
0.000000000
  0
LINE
  5
B4E
330
A02
100
AcDbEntity
  8
ProjItem
100
AcDbLine
 10
251.599998474
 20
88.547563553
 30
0.000000000
 11
265.599998474
 21
88.547563553
 31
0.000000000
  0
LINE
  5
B4F
330
A02
100
AcDbEntity
  8
ProjItem
100
AcDbLine
 10
251.599998474
 20
107.500000000
 30
0.000000000
 11
265.599998474
 21
107.500000000
 31
0.000000000
  0
LINE
  5
B50
330
A02
100
AcDbEntity
  8
ProjItem
100
AcDbLine
 10
265.599998474
 20
107.500000000
 30
0.000000000
 11
265.599998474
 21
121.500000000
 31
0.000000000
  0
LINE
  5
B51
330
A02
100
AcDbEntity
  8
ProjItem
100
AcDbLine
 10
265.599998474
 20
121.500000000
 30
0.000000000
 11
251.599998474
 21
121.500000000
 31
0.000000000
  0
LINE
  5
B52
330
A02
100
AcDbEntity
  8
ProjItem
100
AcDbLine
 10
251.599998474
 20
121.500000000
 30
0.000000000
 11
251.599998474
 21
107.500000000
 31
0.000000000
  0
LINE
  5
B53
330
A02
100
AcDbEntity
  8
ProjItem
100
AcDbLine
 10
247.734634399
 20
106.652240753
 30
0.000000000
 11
248.500000000
 21
106.500000000
 31
0.000000000
  0
LINE
  5
B54
330
A02
100
AcDbEntity
  8
ProjItem
100
AcDbLine
 10
247.085784912
 20
107.085784912
 30
0.000000000
 11
247.734634399
 21
106.652240753
 31
0.000000000
  0
LINE
  5
B55
330
A02
100
AcDbEntity
  8
ProjItem
100
AcDbLine
 10
246.652240753
 20
107.734632492
 30
0.000000000
 11
247.085784912
 21
107.085784912
 31
0.000000000
  0
LINE
  5
B56
330
A02
100
AcDbEntity
  8
ProjItem
100
AcDbLine
 10
246.500000000
 20
108.500000000
 30
0.000000000
 11
246.652240753
 21
107.734632492
 31
0.000000000
  0
LINE
  5
B57
330
A02
100
AcDbEntity
  8
ProjItem
100
AcDbLine
 10
246.500000000
 20
120.500000000
 30
0.000000000
 11
246.500000000
 21
108.500000000
 31
0.000000000
  0
LINE
  5
B58
330
A02
100
AcDbEntity
  8
ProjItem
100
AcDbLine
 10
246.652240753
 20
121.265369415
 30
0.000000000
 11
246.500000000
 21
120.500000000
 31
0.000000000
  0
LINE
  5
B59
330
A02
100
AcDbEntity
  8
ProjItem
100
AcDbLine
 10
247.085784912
 20
121.914215088
 30
0.000000000
 11
246.652240753
 21
121.265369415
 31
0.000000000
  0
LINE
  5
B5A
330
A02
100
AcDbEntity
  8
ProjItem
100
AcDbLine
 10
247.734634399
 20
122.347759247
 30
0.000000000
 11
247.085784912
 21
121.914215088
 31
0.000000000
  0
LINE
  5
B5B
330
A02
100
AcDbEntity
  8
ProjItem
100
AcDbLine
 10
248.500000000
 20
122.500000000
 30
0.000000000
 11
247.734634399
 21
122.347759247
 31
0.000000000
  0
LINE
  5
B5C
330
A02
100
AcDbEntity
  8
ProjItem
100
AcDbLine
 10
268.700000763
 20
122.500000000
 30
0.000000000
 11
248.500000000
 21
122.500000000
 31
0.000000000
  0
LINE
  5
B5D
330
A02
100
AcDbEntity
  8
ProjItem
100
AcDbLine
 10
269.465366364
 20
122.347759247
 30
0.000000000
 11
268.700000763
 21
122.500000000
 31
0.000000000
  0
LINE
  5
B5E
330
A02
100
AcDbEntity
  8
ProjItem
100
AcDbLine
 10
270.114212036
 20
121.914215088
 30
0.000000000
 11
269.465366364
 21
122.347759247
 31
0.000000000
  0
LINE
  5
B5F
330
A02
100
AcDbEntity
  8
ProjItem
100
AcDbLine
 10
270.547760010
 20
121.265369415
 30
0.000000000
 11
270.114212036
 21
121.914215088
 31
0.000000000
  0
LINE
  5
B60
330
A02
100
AcDbEntity
  8
ProjItem
100
AcDbLine
 10
270.699996948
 20
120.500000000
 30
0.000000000
 11
270.547760010
 21
121.265369415
 31
0.000000000
  0
LINE
  5
B61
330
A02
100
AcDbEntity
  8
ProjItem
100
AcDbLine
 10
270.699996948
 20
108.500000000
 30
0.000000000
 11
270.699996948
 21
120.500000000
 31
0.000000000
  0
LINE
  5
B62
330
A02
100
AcDbEntity
  8
ProjItem
100
AcDbLine
 10
270.547760010
 20
107.734632492
 30
0.000000000
 11
270.699996948
 21
108.500000000
 31
0.000000000
  0
LINE
  5
B63
330
A02
100
AcDbEntity
  8
ProjItem
100
AcDbLine
 10
270.114212036
 20
107.085784912
 30
0.000000000
 11
270.547760010
 21
107.734632492
 31
0.000000000
  0
LINE
  5
B64
330
A02
100
AcDbEntity
  8
ProjItem
100
AcDbLine
 10
269.465366364
 20
106.652240753
 30
0.000000000
 11
270.114212036
 21
107.085784912
 31
0.000000000
  0
LINE
  5
B65
330
A02
100
AcDbEntity
  8
ProjItem
100
AcDbLine
 10
268.700000763
 20
106.500000000
 30
0.000000000
 11
269.465366364
 21
106.652240753
 31
0.000000000
  0
LINE
  5
B66
330
A02
100
AcDbEntity
  8
ProjItem
100
AcDbLine
 10
251.599998474
 20
107.500000000
 30
0.000000000
 11
248.500000000
 21
106.500000000
 31
0.000000000
  0
LINE
  5
B67
330
A02
100
AcDbEntity
  8
ProjItem
100
AcDbLine
 10
248.500000000
 20
106.500000000
 30
0.000000000
 11
265.599998474
 21
107.500000000
 31
0.000000000
  0
LINE
  5
B68
330
A02
100
AcDbEntity
  8
ProjItem
100
AcDbLine
 10
268.700000763
 20
106.500000000
 30
0.000000000
 11
265.599998474
 21
107.500000000
 31
0.000000000
  0
LINE
  5
B69
330
A02
100
AcDbEntity
  8
ProjItem
100
AcDbLine
 10
270.699996948
 20
108.500000000
 30
0.000000000
 11
265.599998474
 21
107.500000000
 31
0.000000000
  0
LINE
  5
B6A
330
A02
100
AcDbEntity
  8
ProjItem
100
AcDbLine
 10
268.700000763
 20
106.500000000
 30
0.000000000
 11
270.699996948
 21
108.500000000
 31
0.000000000
  0
LINE
  5
B6B
330
A02
100
AcDbEntity
  8
ProjItem
100
AcDbLine
 10
268.700000763
 20
106.500000000
 30
0.000000000
 11
270.547760010
 21
107.734632492
 31
0.000000000
  0
LINE
  5
B6C
330
A02
100
AcDbEntity
  8
ProjItem
100
AcDbLine
 10
268.700000763
 20
106.500000000
 30
0.000000000
 11
270.114212036
 21
107.085784912
 31
0.000000000
  0
LINE
  5
B6D
330
A02
100
AcDbEntity
  8
ProjItem
100
AcDbLine
 10
246.500000000
 20
108.500000000
 30
0.000000000
 11
248.500000000
 21
106.500000000
 31
0.000000000
  0
LINE
  5
B6E
330
A02
100
AcDbEntity
  8
ProjItem
100
AcDbLine
 10
251.599998474
 20
107.500000000
 30
0.000000000
 11
246.500000000
 21
108.500000000
 31
0.000000000
  0
LINE
  5
B6F
330
A02
100
AcDbEntity
  8
ProjItem
100
AcDbLine
 10
251.599998474
 20
121.500000000
 30
0.000000000
 11
246.500000000
 21
108.500000000
 31
0.000000000
  0
LINE
  5
B70
330
A02
100
AcDbEntity
  8
ProjItem
100
AcDbLine
 10
251.599998474
 20
121.500000000
 30
0.000000000
 11
246.500000000
 21
120.500000000
 31
0.000000000
  0
LINE
  5
B71
330
A02
100
AcDbEntity
  8
ProjItem
100
AcDbLine
 10
248.500000000
 20
122.500000000
 30
0.000000000
 11
246.500000000
 21
120.500000000
 31
0.000000000
  0
LINE
  5
B72
330
A02
100
AcDbEntity
  8
ProjItem
100
AcDbLine
 10
251.599998474
 20
121.500000000
 30
0.000000000
 11
248.500000000
 21
122.500000000
 31
0.000000000
  0
LINE
  5
B73
330
A02
100
AcDbEntity
  8
ProjItem
100
AcDbLine
 10
248.500000000
 20
122.500000000
 30
0.000000000
 11
246.652240753
 21
121.265369415
 31
0.000000000
  0
LINE
  5
B74
330
A02
100
AcDbEntity
  8
ProjItem
100
AcDbLine
 10
248.500000000
 20
122.500000000
 30
0.000000000
 11
247.085784912
 21
121.914215088
 31
0.000000000
  0
LINE
  5
B75
330
A02
100
AcDbEntity
  8
ProjItem
100
AcDbLine
 10
265.599998474
 20
121.500000000
 30
0.000000000
 11
248.500000000
 21
122.500000000
 31
0.000000000
  0
LINE
  5
B76
330
A02
100
AcDbEntity
  8
ProjItem
100
AcDbLine
 10
265.599998474
 20
121.500000000
 30
0.000000000
 11
268.700000763
 21
122.500000000
 31
0.000000000
  0
LINE
  5
B77
330
A02
100
AcDbEntity
  8
ProjItem
100
AcDbLine
 10
270.699996948
 20
120.500000000
 30
0.000000000
 11
268.700000763
 21
122.500000000
 31
0.000000000
  0
LINE
  5
B78
330
A02
100
AcDbEntity
  8
ProjItem
100
AcDbLine
 10
265.599998474
 20
121.500000000
 30
0.000000000
 11
270.699996948
 21
120.500000000
 31
0.000000000
  0
LINE
  5
B79
330
A02
100
AcDbEntity
  8
ProjItem
100
AcDbLine
 10
270.547760010
 20
121.265369415
 30
0.000000000
 11
268.700000763
 21
122.500000000
 31
0.000000000
  0
LINE
  5
B7A
330
A02
100
AcDbEntity
  8
ProjItem
100
AcDbLine
 10
265.599998474
 20
107.500000000
 30
0.000000000
 11
270.699996948
 21
120.500000000
 31
0.000000000
  0
LINE
  5
B7B
330
A02
100
AcDbEntity
  8
ProjItem
100
AcDbLine
 10
246.652240753
 20
107.734632492
 30
0.000000000
 11
248.500000000
 21
106.500000000
 31
0.000000000
  0
LINE
  5
B7C
330
A02
100
AcDbEntity
  8
ProjItem
100
AcDbLine
 10
247.085784912
 20
107.085784912
 30
0.000000000
 11
248.500000000
 21
106.500000000
 31
0.000000000
  0
LINE
  5
B7D
330
A02
100
AcDbEntity
  8
ProjItem
100
AcDbLine
 10
270.114212036
 20
121.914215088
 30
0.000000000
 11
268.700000763
 21
122.500000000
 31
0.000000000
  0
LINE
  5
B7E
330
A02
100
AcDbEntity
  8
ProjItem
100
AcDbLine
 10
269.465366364
 20
103.347759247
 30
0.000000000
 11
268.700000763
 21
103.500000000
 31
0.000000000
  0
LINE
  5
B7F
330
A02
100
AcDbEntity
  8
ProjItem
100
AcDbLine
 10
270.114212036
 20
102.914215088
 30
0.000000000
 11
269.465366364
 21
103.347759247
 31
0.000000000
  0
LINE
  5
B80
330
A02
100
AcDbEntity
  8
ProjItem
100
AcDbLine
 10
270.547760010
 20
102.265367508
 30
0.000000000
 11
270.114212036
 21
102.914215088
 31
0.000000000
  0
LINE
  5
B81
330
A02
100
AcDbEntity
  8
ProjItem
100
AcDbLine
 10
270.699996948
 20
101.500000000
 30
0.000000000
 11
270.547760010
 21
102.265367508
 31
0.000000000
  0
LINE
  5
B82
330
A02
100
AcDbEntity
  8
ProjItem
100
AcDbLine
 10
265.599998474
 20
88.547563553
 30
0.000000000
 11
270.699996948
 21
101.500000000
 31
0.000000000
  0
LINE
  5
B83
330
A02
100
AcDbEntity
  8
ProjItem
100
AcDbLine
 10
270.699996948
 20
101.500000000
 30
0.000000000
 11
265.599998474
 21
102.547565460
 31
0.000000000
  0
LINE
  5
B84
330
A02
100
AcDbEntity
  8
ProjItem
100
AcDbLine
 10
270.547760010
 20
102.265367508
 30
0.000000000
 11
265.599998474
 21
102.547565460
 31
0.000000000
  0
LINE
  5
B85
330
A02
100
AcDbEntity
  8
ProjItem
100
AcDbLine
 10
270.114212036
 20
102.914215088
 30
0.000000000
 11
265.599998474
 21
102.547565460
 31
0.000000000
  0
LINE
  5
B86
330
A02
100
AcDbEntity
  8
ProjItem
100
AcDbLine
 10
251.599998474
 20
88.547563553
 30
0.000000000
 11
248.500000000
 21
87.547564507
 31
0.000000000
  0
LINE
  5
B87
330
A02
100
AcDbEntity
  8
ProjItem
100
AcDbLine
 10
248.500000000
 20
87.547564507
 30
0.000000000
 11
265.599998474
 21
88.547563553
 31
0.000000000
  0
LINE
  5
B88
330
A02
100
AcDbEntity
  8
ProjItem
100
AcDbLine
 10
268.700000763
 20
87.547564507
 30
0.000000000
 11
265.599998474
 21
88.547563553
 31
0.000000000
  0
LINE
  5
B89
330
A02
100
AcDbEntity
  8
ProjItem
100
AcDbLine
 10
270.114212036
 20
88.133350372
 30
0.000000000
 11
265.599998474
 21
88.547563553
 31
0.000000000
  0
LINE
  5
B8A
330
A02
100
AcDbEntity
  8
ProjItem
100
AcDbLine
 10
268.700000763
 20
87.547564507
 30
0.000000000
 11
270.114212036
 21
88.133350372
 31
0.000000000
  0
LINE
  5
B8B
330
A02
100
AcDbEntity
  8
ProjItem
100
AcDbLine
 10
251.599998474
 20
102.547565460
 30
0.000000000
 11
246.500000000
 21
101.500000000
 31
0.000000000
  0
LINE
  5
B8C
330
A02
100
AcDbEntity
  8
ProjItem
100
AcDbLine
 10
246.500000000
 20
101.500000000
 30
0.000000000
 11
251.599998474
 21
88.547563553
 31
0.000000000
  0
LINE
  5
B8D
330
A02
100
AcDbEntity
  8
ProjItem
100
AcDbLine
 10
246.500000000
 20
89.547563553
 30
0.000000000
 11
251.599998474
 21
88.547563553
 31
0.000000000
  0
LINE
  5
B8E
330
A02
100
AcDbEntity
  8
ProjItem
100
AcDbLine
 10
246.652240753
 20
88.782196999
 30
0.000000000
 11
251.599998474
 21
88.547563553
 31
0.000000000
  0
LINE
  5
B8F
330
A02
100
AcDbEntity
  8
ProjItem
100
AcDbLine
 10
265.599998474
 20
102.547565460
 30
0.000000000
 11
248.500000000
 21
103.500000000
 31
0.000000000
  0
LINE
  5
B90
330
A02
100
AcDbEntity
  8
ProjItem
100
AcDbLine
 10
248.500000000
 20
103.500000000
 30
0.000000000
 11
251.599998474
 21
102.547565460
 31
0.000000000
  0
LINE
  5
B91
330
A02
100
AcDbEntity
  8
ProjItem
100
AcDbLine
 10
247.085784912
 20
102.914215088
 30
0.000000000
 11
251.599998474
 21
102.547565460
 31
0.000000000
  0
LINE
  5
B92
330
A02
100
AcDbEntity
  8
ProjItem
100
AcDbLine
 10
248.500000000
 20
103.500000000
 30
0.000000000
 11
247.085784912
 21
102.914215088
 31
0.000000000
  0
LINE
  5
B93
330
A02
100
AcDbEntity
  8
ProjItem
100
AcDbLine
 10
246.652240753
 20
102.265367508
 30
0.000000000
 11
251.599998474
 21
102.547565460
 31
0.000000000
  0
LINE
  5
B94
330
A02
100
AcDbEntity
  8
ProjItem
100
AcDbLine
 10
268.700000763
 20
103.500000000
 30
0.000000000
 11
270.114212036
 21
102.914215088
 31
0.000000000
  0
LINE
  5
B95
330
A02
100
AcDbEntity
  8
ProjItem
100
AcDbLine
 10
268.700000763
 20
103.500000000
 30
0.000000000
 11
265.599998474
 21
102.547565460
 31
0.000000000
  0
LINE
  5
B96
330
A02
100
AcDbEntity
  8
ProjItem
100
AcDbLine
 10
247.085784912
 20
88.133350372
 30
0.000000000
 11
251.599998474
 21
88.547563553
 31
0.000000000
  0
LINE
  5
B97
330
A02
100
AcDbEntity
  8
ProjItem
100
AcDbLine
 10
247.085784912
 20
88.133350372
 30
0.000000000
 11
248.500000000
 21
87.547564507
 31
0.000000000
  0
LINE
  5
B98
330
A02
100
AcDbEntity
  8
ProjItem
100
AcDbLine
 10
270.547760010
 20
88.782196999
 30
0.000000000
 11
265.599998474
 21
88.547563553
 31
0.000000000
  0
LINE
  5
B99
330
A02
100
AcDbEntity
  8
ProjItem
100
AcDbLine
 10
270.699996948
 20
89.547563553
 30
0.000000000
 11
265.599998474
 21
88.547563553
 31
0.000000000
  0
LINE
  5
B9A
330
A02
100
AcDbEntity
  8
ProjItem
100
AcDbLine
 10
268.700000763
 20
103.500000000
 30
0.000000000
 11
248.500000000
 21
103.500000000
 31
0.000000000
  0
LINE
  5
B9B
330
A02
100
AcDbEntity
  8
ProjItem
100
AcDbLine
 10
246.652240753
 20
102.265367508
 30
0.000000000
 11
246.500000000
 21
101.500000000
 31
0.000000000
  0
LINE
  5
B9C
330
A02
100
AcDbEntity
  8
ProjItem
100
AcDbLine
 10
247.085784912
 20
102.914215088
 30
0.000000000
 11
246.652240753
 21
102.265367508
 31
0.000000000
  0
LINE
  5
B9D
330
A02
100
AcDbEntity
  8
ProjItem
100
AcDbLine
 10
247.734634399
 20
103.347759247
 30
0.000000000
 11
247.085784912
 21
102.914215088
 31
0.000000000
  0
LINE
  5
B9E
330
A02
100
AcDbEntity
  8
ProjItem
100
AcDbLine
 10
248.500000000
 20
103.500000000
 30
0.000000000
 11
247.734634399
 21
103.347759247
 31
0.000000000
  0
LINE
  5
B9F
330
A02
100
AcDbEntity
  8
ProjItem
100
AcDbLine
 10
247.734634399
 20
87.699804306
 30
0.000000000
 11
248.500000000
 21
87.547564507
 31
0.000000000
  0
LINE
  5
BA0
330
A02
100
AcDbEntity
  8
ProjItem
100
AcDbLine
 10
247.085784912
 20
88.133350372
 30
0.000000000
 11
247.734634399
 21
87.699804306
 31
0.000000000
  0
LINE
  5
BA1
330
A02
100
AcDbEntity
  8
ProjItem
100
AcDbLine
 10
246.652240753
 20
88.782196999
 30
0.000000000
 11
247.085784912
 21
88.133350372
 31
0.000000000
  0
LINE
  5
BA2
330
A02
100
AcDbEntity
  8
ProjItem
100
AcDbLine
 10
246.500000000
 20
89.547563553
 30
0.000000000
 11
246.652240753
 21
88.782196999
 31
0.000000000
  0
LINE
  5
BA3
330
A02
100
AcDbEntity
  8
ProjItem
100
AcDbLine
 10
248.500000000
 20
87.547564507
 30
0.000000000
 11
268.700000763
 21
87.547564507
 31
0.000000000
  0
LINE
  5
BA4
330
A02
100
AcDbEntity
  8
ProjItem
100
AcDbLine
 10
270.547760010
 20
88.782196999
 30
0.000000000
 11
270.699996948
 21
89.547563553
 31
0.000000000
  0
LINE
  5
BA5
330
A02
100
AcDbEntity
  8
ProjItem
100
AcDbLine
 10
270.114212036
 20
88.133350372
 30
0.000000000
 11
270.547760010
 21
88.782196999
 31
0.000000000
  0
LINE
  5
BA6
330
A02
100
AcDbEntity
  8
ProjItem
100
AcDbLine
 10
269.465366364
 20
87.699804306
 30
0.000000000
 11
270.114212036
 21
88.133350372
 31
0.000000000
  0
LINE
  5
BA7
330
A02
100
AcDbEntity
  8
ProjItem
100
AcDbLine
 10
268.700000763
 20
87.547564507
 30
0.000000000
 11
269.465366364
 21
87.699804306
 31
0.000000000
  0
LINE
  5
BA8
330
A02
100
AcDbEntity
  8
ProjItem
100
AcDbLine
 10
270.699996948
 20
89.547563553
 30
0.000000000
 11
270.699996948
 21
101.500000000
 31
0.000000000
  0
LINE
  5
BA9
330
A02
100
AcDbEntity
  8
ProjItem
100
AcDbLine
 10
246.500000000
 20
101.500000000
 30
0.000000000
 11
246.500000000
 21
89.547563553
 31
0.000000000
  0
LINE
  5
BAA
330
A02
100
AcDbEntity
  8
ProjItem
100
AcDbLine
 10
248.500000000
 20
106.500000000
 30
0.000000000
 11
268.700000763
 21
106.500000000
 31
0.000000000
  0
LINE
  5
BAB
330
A02
100
AcDbEntity
  8
ProjItem
100
AcDbLine
 10
211.087499857
 20
131.806682587
 30
0.000000000
 11
213.674999714
 21
132.500000000
 31
0.000000000
  0
LINE
  5
BAC
330
A02
100
AcDbEntity
  8
ProjItem
100
AcDbLine
 10
210.015722394
 20
130.984275818
 30
0.000000000
 11
213.674999714
 21
132.500000000
 31
0.000000000
  0
LINE
  5
BAD
330
A02
100
AcDbEntity
  8
ProjItem
100
AcDbLine
 10
209.193318546
 20
129.912498474
 30
0.000000000
 11
213.674999714
 21
132.500000000
 31
0.000000000
  0
LINE
  5
BAE
330
A02
100
AcDbEntity
  8
ProjItem
100
AcDbLine
 10
208.676333845
 20
128.664390564
 30
0.000000000
 11
213.674999714
 21
132.500000000
 31
0.000000000
  0
LINE
  5
BAF
330
A02
100
AcDbEntity
  8
ProjItem
100
AcDbLine
 10
221.274574280
 20
122.205261230
 30
0.000000000
 11
213.674999714
 21
132.500000000
 31
0.000000000
  0
LINE
  5
BB0
330
A02
100
AcDbEntity
  8
ProjItem
100
AcDbLine
 10
208.676333845
 20
128.664390564
 30
0.000000000
 11
221.274574280
 21
122.205261230
 31
0.000000000
  0
LINE
  5
BB1
330
A02
100
AcDbEntity
  8
ProjItem
100
AcDbLine
 10
222.013566971
 20
122.311511993
 30
0.000000000
 11
213.674999714
 21
132.500000000
 31
0.000000000
  0
LINE
  5
BB2
330
A02
100
AcDbEntity
  8
ProjItem
100
AcDbLine
 10
221.274574280
 20
122.205261230
 30
0.000000000
 11
222.013566971
 21
122.311511993
 31
0.000000000
  0
LINE
  5
BB3
330
A02
100
AcDbEntity
  8
ProjItem
100
AcDbLine
 10
208.500000000
 20
127.325000763
 30
0.000000000
 11
221.274574280
 21
122.205261230
 31
0.000000000
  0
LINE
  5
BB4
330
A02
100
AcDbEntity
  8
ProjItem
100
AcDbLine
 10
220.710339546
 20
121.716346741
 30
0.000000000
 11
221.274574280
 21
122.205261230
 31
0.000000000
  0
LINE
  5
BB5
330
A02
100
AcDbEntity
  8
ProjItem
100
AcDbLine
 10
208.500000000
 20
127.325000763
 30
0.000000000
 11
220.710339546
 21
121.716346741
 31
0.000000000
  0
LINE
  5
BB6
330
A02
100
AcDbEntity
  8
ProjItem
100
AcDbLine
 10
220.500000000
 20
121.000000000
 30
0.000000000
 11
220.710339546
 21
121.716346741
 31
0.000000000
  0
LINE
  5
BB7
330
A02
100
AcDbEntity
  8
ProjItem
100
AcDbLine
 10
208.500000000
 20
127.325000763
 30
0.000000000
 11
220.500000000
 21
121.000000000
 31
0.000000000
  0
LINE
  5
BB8
330
A02
100
AcDbEntity
  8
ProjItem
100
AcDbLine
 10
220.710339546
 20
120.283653259
 30
0.000000000
 11
220.500000000
 21
121.000000000
 31
0.000000000
  0
LINE
  5
BB9
330
A02
100
AcDbEntity
  8
ProjItem
100
AcDbLine
 10
208.500000000
 20
127.325000763
 30
0.000000000
 11
220.710339546
 21
120.283653259
 31
0.000000000
  0
LINE
  5
BBA
330
A02
100
AcDbEntity
  8
ProjItem
100
AcDbLine
 10
220.422148705
 20
106.759120941
 30
0.000000000
 11
220.710339546
 21
120.283653259
 31
0.000000000
  0
LINE
  5
BBB
330
A02
100
AcDbEntity
  8
ProjItem
100
AcDbLine
 10
208.500000000
 20
127.325000763
 30
0.000000000
 11
220.422148705
 21
106.759120941
 31
0.000000000
  0
LINE
  5
BBC
330
A02
100
AcDbEntity
  8
ProjItem
100
AcDbLine
 10
221.274574280
 20
119.794734955
 30
0.000000000
 11
220.710339546
 21
120.283653259
 31
0.000000000
  0
LINE
  5
BBD
330
A02
100
AcDbEntity
  8
ProjItem
100
AcDbLine
 10
220.422148705
 20
106.759120941
 30
0.000000000
 11
221.274574280
 21
119.794734955
 31
0.000000000
  0
LINE
  5
BBE
330
A02
100
AcDbEntity
  8
ProjItem
100
AcDbLine
 10
221.324327469
 20
107.193586349
 30
0.000000000
 11
221.274574280
 21
119.794734955
 31
0.000000000
  0
LINE
  5
BBF
330
A02
100
AcDbEntity
  8
ProjItem
100
AcDbLine
 10
220.422148705
 20
106.759120941
 30
0.000000000
 11
221.324327469
 21
107.193586349
 31
0.000000000
  0
LINE
  5
BC0
330
A02
100
AcDbEntity
  8
ProjItem
100
AcDbLine
 10
222.013566971
 20
119.688488007
 30
0.000000000
 11
221.274574280
 21
119.794734955
 31
0.000000000
  0
LINE
  5
BC1
330
A02
100
AcDbEntity
  8
ProjItem
100
AcDbLine
 10
221.324327469
 20
107.193586349
 30
0.000000000
 11
222.013566971
 21
119.688488007
 31
0.000000000
  0
LINE
  5
BC2
330
A02
100
AcDbEntity
  8
ProjItem
100
AcDbLine
 10
222.325672150
 20
107.193586349
 30
0.000000000
 11
222.013566971
 21
119.688488007
 31
0.000000000
  0
LINE
  5
BC3
330
A02
100
AcDbEntity
  8
ProjItem
100
AcDbLine
 10
221.324327469
 20
107.193586349
 30
0.000000000
 11
222.325672150
 21
107.193586349
 31
0.000000000
  0
LINE
  5
BC4
330
A02
100
AcDbEntity
  8
ProjItem
100
AcDbLine
 10
222.692690849
 20
119.998630524
 30
0.000000000
 11
222.013566971
 21
119.688488007
 31
0.000000000
  0
LINE
  5
BC5
330
A02
100
AcDbEntity
  8
ProjItem
100
AcDbLine
 10
222.325672150
 20
107.193586349
 30
0.000000000
 11
222.692690849
 21
119.998630524
 31
0.000000000
  0
LINE
  5
BC6
330
A02
100
AcDbEntity
  8
ProjItem
100
AcDbLine
 10
223.227851868
 20
106.759120941
 30
0.000000000
 11
222.692690849
 21
119.998630524
 31
0.000000000
  0
LINE
  5
BC7
330
A02
100
AcDbEntity
  8
ProjItem
100
AcDbLine
 10
222.325672150
 20
107.193586349
 30
0.000000000
 11
223.227851868
 21
106.759120941
 31
0.000000000
  0
LINE
  5
BC8
330
A02
100
AcDbEntity
  8
ProjItem
100
AcDbLine
 10
246.500000000
 20
108.500000000
 30
0.000000000
 11
222.692690849
 21
119.998630524
 31
0.000000000
  0
LINE
  5
BC9
330
A02
100
AcDbEntity
  8
ProjItem
100
AcDbLine
 10
223.227851868
 20
106.759120941
 30
0.000000000
 11
246.500000000
 21
108.500000000
 31
0.000000000
  0
LINE
  5
BCA
330
A02
100
AcDbEntity
  8
ProjItem
100
AcDbLine
 10
223.852180481
 20
105.976238251
 30
0.000000000
 11
246.500000000
 21
108.500000000
 31
0.000000000
  0
LINE
  5
BCB
330
A02
100
AcDbEntity
  8
ProjItem
100
AcDbLine
 10
223.227851868
 20
106.759120941
 30
0.000000000
 11
223.852180481
 21
105.976238251
 31
0.000000000
  0
LINE
  5
BCC
330
A02
100
AcDbEntity
  8
ProjItem
100
AcDbLine
 10
223.852180481
 20
105.976238251
 30
0.000000000
 11
246.652240753
 21
107.734632492
 31
0.000000000
  0
LINE
  5
BCD
330
A02
100
AcDbEntity
  8
ProjItem
100
AcDbLine
 10
224.074999809
 20
105.000000000
 30
0.000000000
 11
246.652240753
 21
107.734632492
 31
0.000000000
  0
LINE
  5
BCE
330
A02
100
AcDbEntity
  8
ProjItem
100
AcDbLine
 10
223.852180481
 20
105.976238251
 30
0.000000000
 11
224.074999809
 21
105.000000000
 31
0.000000000
  0
LINE
  5
BCF
330
A02
100
AcDbEntity
  8
ProjItem
100
AcDbLine
 10
224.074999809
 20
105.000000000
 30
0.000000000
 11
247.085784912
 21
107.085784912
 31
0.000000000
  0
LINE
  5
BD0
330
A02
100
AcDbEntity
  8
ProjItem
100
AcDbLine
 10
247.085784912
 20
102.914215088
 30
0.000000000
 11
247.085784912
 21
107.085784912
 31
0.000000000
  0
LINE
  5
BD1
330
A02
100
AcDbEntity
  8
ProjItem
100
AcDbLine
 10
224.074999809
 20
105.000000000
 30
0.000000000
 11
247.085784912
 21
102.914215088
 31
0.000000000
  0
LINE
  5
BD2
330
A02
100
AcDbEntity
  8
ProjItem
100
AcDbLine
 10
247.085784912
 20
102.914215088
 30
0.000000000
 11
247.734634399
 21
106.652240753
 31
0.000000000
  0
LINE
  5
BD3
330
A02
100
AcDbEntity
  8
ProjItem
100
AcDbLine
 10
247.734634399
 20
103.347759247
 30
0.000000000
 11
247.734634399
 21
106.652240753
 31
0.000000000
  0
LINE
  5
BD4
330
A02
100
AcDbEntity
  8
ProjItem
100
AcDbLine
 10
247.734634399
 20
103.347759247
 30
0.000000000
 11
248.500000000
 21
106.500000000
 31
0.000000000
  0
LINE
  5
BD5
330
A02
100
AcDbEntity
  8
ProjItem
100
AcDbLine
 10
248.500000000
 20
103.500000000
 30
0.000000000
 11
248.500000000
 21
106.500000000
 31
0.000000000
  0
LINE
  5
BD6
330
A02
100
AcDbEntity
  8
ProjItem
100
AcDbLine
 10
248.500000000
 20
103.500000000
 30
0.000000000
 11
268.700000763
 21
106.500000000
 31
0.000000000
  0
LINE
  5
BD7
330
A02
100
AcDbEntity
  8
ProjItem
100
AcDbLine
 10
268.700000763
 20
103.500000000
 30
0.000000000
 11
268.700000763
 21
106.500000000
 31
0.000000000
  0
LINE
  5
BD8
330
A02
100
AcDbEntity
  8
ProjItem
100
AcDbLine
 10
268.700000763
 20
103.500000000
 30
0.000000000
 11
269.465366364
 21
106.652240753
 31
0.000000000
  0
LINE
  5
BD9
330
A02
100
AcDbEntity
  8
ProjItem
100
AcDbLine
 10
269.465366364
 20
103.347759247
 30
0.000000000
 11
269.465366364
 21
106.652240753
 31
0.000000000
  0
LINE
  5
BDA
330
A02
100
AcDbEntity
  8
ProjItem
100
AcDbLine
 10
269.465366364
 20
103.347759247
 30
0.000000000
 11
270.114212036
 21
107.085784912
 31
0.000000000
  0
LINE
  5
BDB
330
A02
100
AcDbEntity
  8
ProjItem
100
AcDbLine
 10
270.114212036
 20
102.914215088
 30
0.000000000
 11
270.114212036
 21
107.085784912
 31
0.000000000
  0
LINE
  5
BDC
330
A02
100
AcDbEntity
  8
ProjItem
100
AcDbLine
 10
293.125000000
 20
105.000000000
 30
0.000000000
 11
270.114212036
 21
107.085784912
 31
0.000000000
  0
LINE
  5
BDD
330
A02
100
AcDbEntity
  8
ProjItem
100
AcDbLine
 10
270.114212036
 20
102.914215088
 30
0.000000000
 11
293.125000000
 21
105.000000000
 31
0.000000000
  0
LINE
  5
BDE
330
A02
100
AcDbEntity
  8
ProjItem
100
AcDbLine
 10
270.547760010
 20
102.265367508
 30
0.000000000
 11
293.125000000
 21
105.000000000
 31
0.000000000
  0
LINE
  5
BDF
330
A02
100
AcDbEntity
  8
ProjItem
100
AcDbLine
 10
293.347824097
 20
104.023761749
 30
0.000000000
 11
293.125000000
 21
105.000000000
 31
0.000000000
  0
LINE
  5
BE0
330
A02
100
AcDbEntity
  8
ProjItem
100
AcDbLine
 10
270.547760010
 20
102.265367508
 30
0.000000000
 11
293.347824097
 21
104.023761749
 31
0.000000000
  0
LINE
  5
BE1
330
A02
100
AcDbEntity
  8
ProjItem
100
AcDbLine
 10
270.699996948
 20
101.500000000
 30
0.000000000
 11
293.347824097
 21
104.023761749
 31
0.000000000
  0
LINE
  5
BE2
330
A02
100
AcDbEntity
  8
ProjItem
100
AcDbLine
 10
293.972145081
 20
103.240879059
 30
0.000000000
 11
293.347824097
 21
104.023761749
 31
0.000000000
  0
LINE
  5
BE3
330
A02
100
AcDbEntity
  8
ProjItem
100
AcDbLine
 10
270.699996948
 20
101.500000000
 30
0.000000000
 11
293.972145081
 21
103.240879059
 31
0.000000000
  0
LINE
  5
BE4
330
A02
100
AcDbEntity
  8
ProjItem
100
AcDbLine
 10
294.824577332
 20
90.205263138
 30
0.000000000
 11
293.972145081
 21
103.240879059
 31
0.000000000
  0
LINE
  5
BE5
330
A02
100
AcDbEntity
  8
ProjItem
100
AcDbLine
 10
270.699996948
 20
101.500000000
 30
0.000000000
 11
294.824577332
 21
90.205263138
 31
0.000000000
  0
LINE
  5
BE6
330
A02
100
AcDbEntity
  8
ProjItem
100
AcDbLine
 10
294.874328613
 20
102.806413651
 30
0.000000000
 11
293.972145081
 21
103.240879059
 31
0.000000000
  0
LINE
  5
BE7
330
A02
100
AcDbEntity
  8
ProjItem
100
AcDbLine
 10
294.824577332
 20
90.205263138
 30
0.000000000
 11
294.874328613
 21
102.806413651
 31
0.000000000
  0
LINE
  5
BE8
330
A02
100
AcDbEntity
  8
ProjItem
100
AcDbLine
 10
295.563568115
 20
90.311512947
 30
0.000000000
 11
294.874328613
 21
102.806413651
 31
0.000000000
  0
LINE
  5
BE9
330
A02
100
AcDbEntity
  8
ProjItem
100
AcDbLine
 10
294.824577332
 20
90.205263138
 30
0.000000000
 11
295.563568115
 21
90.311512947
 31
0.000000000
  0
LINE
  5
BEA
330
A02
100
AcDbEntity
  8
ProjItem
100
AcDbLine
 10
295.875671387
 20
102.806413651
 30
0.000000000
 11
294.874328613
 21
102.806413651
 31
0.000000000
  0
LINE
  5
BEB
330
A02
100
AcDbEntity
  8
ProjItem
100
AcDbLine
 10
295.563568115
 20
90.311512947
 30
0.000000000
 11
295.875671387
 21
102.806413651
 31
0.000000000
  0
LINE
  5
BEC
330
A02
100
AcDbEntity
  8
ProjItem
100
AcDbLine
 10
296.242691040
 20
90.001368523
 30
0.000000000
 11
295.875671387
 21
102.806413651
 31
0.000000000
  0
LINE
  5
BED
330
A02
100
AcDbEntity
  8
ProjItem
100
AcDbLine
 10
295.563568115
 20
90.311512947
 30
0.000000000
 11
296.242691040
 21
90.001368523
 31
0.000000000
  0
LINE
  5
BEE
330
A02
100
AcDbEntity
  8
ProjItem
100
AcDbLine
 10
296.777854919
 20
103.240879059
 30
0.000000000
 11
295.875671387
 21
102.806413651
 31
0.000000000
  0
LINE
  5
BEF
330
A02
100
AcDbEntity
  8
ProjItem
100
AcDbLine
 10
296.242691040
 20
90.001368523
 30
0.000000000
 11
296.777854919
 21
103.240879059
 31
0.000000000
  0
LINE
  5
BF0
330
A02
100
AcDbEntity
  8
ProjItem
100
AcDbLine
 10
308.500000000
 20
82.674999714
 30
0.000000000
 11
296.777854919
 21
103.240879059
 31
0.000000000
  0
LINE
  5
BF1
330
A02
100
AcDbEntity
  8
ProjItem
100
AcDbLine
 10
296.242691040
 20
90.001368523
 30
0.000000000
 11
308.500000000
 21
82.674999714
 31
0.000000000
  0
LINE
  5
BF2
330
A02
100
AcDbEntity
  8
ProjItem
100
AcDbLine
 10
297.402175903
 20
104.023761749
 30
0.000000000
 11
296.777854919
 21
103.240879059
 31
0.000000000
  0
LINE
  5
BF3
330
A02
100
AcDbEntity
  8
ProjItem
100
AcDbLine
 10
308.500000000
 20
82.674999714
 30
0.000000000
 11
297.402175903
 21
104.023761749
 31
0.000000000
  0
LINE
  5
BF4
330
A02
100
AcDbEntity
  8
ProjItem
100
AcDbLine
 10
297.625000000
 20
105.000000000
 30
0.000000000
 11
297.402175903
 21
104.023761749
 31
0.000000000
  0
LINE
  5
BF5
330
A02
100
AcDbEntity
  8
ProjItem
100
AcDbLine
 10
308.500000000
 20
82.674999714
 30
0.000000000
 11
297.625000000
 21
105.000000000
 31
0.000000000
  0
LINE
  5
BF6
330
A02
100
AcDbEntity
  8
ProjItem
100
AcDbLine
 10
308.500000000
 20
127.325000763
 30
0.000000000
 11
297.625000000
 21
105.000000000
 31
0.000000000
  0
LINE
  5
BF7
330
A02
100
AcDbEntity
  8
ProjItem
100
AcDbLine
 10
308.500000000
 20
82.674999714
 30
0.000000000
 11
308.500000000
 21
127.325000763
 31
0.000000000
  0
LINE
  5
BF8
330
A02
100
AcDbEntity
  8
ProjItem
100
AcDbLine
 10
297.402175903
 20
105.976238251
 30
0.000000000
 11
297.625000000
 21
105.000000000
 31
0.000000000
  0
LINE
  5
BF9
330
A02
100
AcDbEntity
  8
ProjItem
100
AcDbLine
 10
308.500000000
 20
127.325000763
 30
0.000000000
 11
297.402175903
 21
105.976238251
 31
0.000000000
  0
LINE
  5
BFA
330
A02
100
AcDbEntity
  8
ProjItem
100
AcDbLine
 10
296.777854919
 20
106.759120941
 30
0.000000000
 11
297.402175903
 21
105.976238251
 31
0.000000000
  0
LINE
  5
BFB
330
A02
100
AcDbEntity
  8
ProjItem
100
AcDbLine
 10
308.500000000
 20
127.325000763
 30
0.000000000
 11
296.777854919
 21
106.759120941
 31
0.000000000
  0
LINE
  5
BFC
330
A02
100
AcDbEntity
  8
ProjItem
100
AcDbLine
 10
296.242691040
 20
119.998630524
 30
0.000000000
 11
296.777854919
 21
106.759120941
 31
0.000000000
  0
LINE
  5
BFD
330
A02
100
AcDbEntity
  8
ProjItem
100
AcDbLine
 10
308.500000000
 20
127.325000763
 30
0.000000000
 11
296.242691040
 21
119.998630524
 31
0.000000000
  0
LINE
  5
BFE
330
A02
100
AcDbEntity
  8
ProjItem
100
AcDbLine
 10
295.875671387
 20
107.193586349
 30
0.000000000
 11
296.777854919
 21
106.759120941
 31
0.000000000
  0
LINE
  5
BFF
330
A02
100
AcDbEntity
  8
ProjItem
100
AcDbLine
 10
296.242691040
 20
119.998630524
 30
0.000000000
 11
295.875671387
 21
107.193586349
 31
0.000000000
  0
LINE
  5
C00
330
A02
100
AcDbEntity
  8
ProjItem
100
AcDbLine
 10
295.563568115
 20
119.688488007
 30
0.000000000
 11
295.875671387
 21
107.193586349
 31
0.000000000
  0
LINE
  5
C01
330
A02
100
AcDbEntity
  8
ProjItem
100
AcDbLine
 10
296.242691040
 20
119.998630524
 30
0.000000000
 11
295.563568115
 21
119.688488007
 31
0.000000000
  0
LINE
  5
C02
330
A02
100
AcDbEntity
  8
ProjItem
100
AcDbLine
 10
294.874328613
 20
107.193586349
 30
0.000000000
 11
295.875671387
 21
107.193586349
 31
0.000000000
  0
LINE
  5
C03
330
A02
100
AcDbEntity
  8
ProjItem
100
AcDbLine
 10
295.563568115
 20
119.688488007
 30
0.000000000
 11
294.874328613
 21
107.193586349
 31
0.000000000
  0
LINE
  5
C04
330
A02
100
AcDbEntity
  8
ProjItem
100
AcDbLine
 10
294.824577332
 20
119.794734955
 30
0.000000000
 11
294.874328613
 21
107.193586349
 31
0.000000000
  0
LINE
  5
C05
330
A02
100
AcDbEntity
  8
ProjItem
100
AcDbLine
 10
295.563568115
 20
119.688488007
 30
0.000000000
 11
294.824577332
 21
119.794734955
 31
0.000000000
  0
LINE
  5
C06
330
A02
100
AcDbEntity
  8
ProjItem
100
AcDbLine
 10
293.972145081
 20
106.759120941
 30
0.000000000
 11
294.874328613
 21
107.193586349
 31
0.000000000
  0
LINE
  5
C07
330
A02
100
AcDbEntity
  8
ProjItem
100
AcDbLine
 10
294.824577332
 20
119.794734955
 30
0.000000000
 11
293.972145081
 21
106.759120941
 31
0.000000000
  0
LINE
  5
C08
330
A02
100
AcDbEntity
  8
ProjItem
100
AcDbLine
 10
270.699996948
 20
108.500000000
 30
0.000000000
 11
293.972145081
 21
106.759120941
 31
0.000000000
  0
LINE
  5
C09
330
A02
100
AcDbEntity
  8
ProjItem
100
AcDbLine
 10
294.824577332
 20
119.794734955
 30
0.000000000
 11
270.699996948
 21
108.500000000
 31
0.000000000
  0
LINE
  5
C0A
330
A02
100
AcDbEntity
  8
ProjItem
100
AcDbLine
 10
293.347824097
 20
105.976238251
 30
0.000000000
 11
293.972145081
 21
106.759120941
 31
0.000000000
  0
LINE
  5
C0B
330
A02
100
AcDbEntity
  8
ProjItem
100
AcDbLine
 10
270.699996948
 20
108.500000000
 30
0.000000000
 11
293.347824097
 21
105.976238251
 31
0.000000000
  0
LINE
  5
C0C
330
A02
100
AcDbEntity
  8
ProjItem
100
AcDbLine
 10
270.547760010
 20
107.734632492
 30
0.000000000
 11
293.347824097
 21
105.976238251
 31
0.000000000
  0
LINE
  5
C0D
330
A02
100
AcDbEntity
  8
ProjItem
100
AcDbLine
 10
293.125000000
 20
105.000000000
 30
0.000000000
 11
293.347824097
 21
105.976238251
 31
0.000000000
  0
LINE
  5
C0E
330
A02
100
AcDbEntity
  8
ProjItem
100
AcDbLine
 10
270.547760010
 20
107.734632492
 30
0.000000000
 11
293.125000000
 21
105.000000000
 31
0.000000000
  0
LINE
  5
C0F
330
A02
100
AcDbEntity
  8
ProjItem
100
AcDbLine
 10
208.500000000
 20
127.325000763
 30
0.000000000
 11
208.500000000
 21
82.674999714
 31
0.000000000
  0
LINE
  5
C10
330
A02
100
AcDbEntity
  8
ProjItem
100
AcDbLine
 10
208.500000000
 20
82.674999714
 30
0.000000000
 11
219.574999809
 21
105.000000000
 31
0.000000000
  0
LINE
  5
C11
330
A02
100
AcDbEntity
  8
ProjItem
100
AcDbLine
 10
219.574999809
 20
105.000000000
 30
0.000000000
 11
208.500000000
 21
127.325000763
 31
0.000000000
  0
LINE
  5
C12
330
A02
100
AcDbEntity
  8
ProjItem
100
AcDbLine
 10
219.797819138
 20
105.976238251
 30
0.000000000
 11
208.500000000
 21
127.325000763
 31
0.000000000
  0
LINE
  5
C13
330
A02
100
AcDbEntity
  8
ProjItem
100
AcDbLine
 10
219.574999809
 20
105.000000000
 30
0.000000000
 11
219.797819138
 21
105.976238251
 31
0.000000000
  0
LINE
  5
C14
330
A02
100
AcDbEntity
  8
ProjItem
100
AcDbLine
 10
219.797819138
 20
105.976238251
 30
0.000000000
 11
220.422148705
 21
106.759120941
 31
0.000000000
  0
LINE
  5
C15
330
A02
100
AcDbEntity
  8
ProjItem
100
AcDbLine
 10
208.676333845
 20
81.335611343
 30
0.000000000
 11
221.274574280
 21
87.794737816
 31
0.000000000
  0
LINE
  5
C16
330
A02
100
AcDbEntity
  8
ProjItem
100
AcDbLine
 10
221.274574280
 20
87.794737816
 30
0.000000000
 11
208.500000000
 21
82.674999714
 31
0.000000000
  0
LINE
  5
C17
330
A02
100
AcDbEntity
  8
ProjItem
100
AcDbLine
 10
220.710339546
 20
88.283651352
 30
0.000000000
 11
208.500000000
 21
82.674999714
 31
0.000000000
  0
LINE
  5
C18
330
A02
100
AcDbEntity
  8
ProjItem
100
AcDbLine
 10
221.274574280
 20
87.794737816
 30
0.000000000
 11
220.710339546
 21
88.283651352
 31
0.000000000
  0
LINE
  5
C19
330
A02
100
AcDbEntity
  8
ProjItem
100
AcDbLine
 10
220.500000000
 20
89.000000000
 30
0.000000000
 11
208.500000000
 21
82.674999714
 31
0.000000000
  0
LINE
  5
C1A
330
A02
100
AcDbEntity
  8
ProjItem
100
AcDbLine
 10
220.710339546
 20
88.283651352
 30
0.000000000
 11
220.500000000
 21
89.000000000
 31
0.000000000
  0
LINE
  5
C1B
330
A02
100
AcDbEntity
  8
ProjItem
100
AcDbLine
 10
213.674999714
 20
77.500000000
 30
0.000000000
 11
221.274574280
 21
87.794737816
 31
0.000000000
  0
LINE
  5
C1C
330
A02
100
AcDbEntity
  8
ProjItem
100
AcDbLine
 10
208.676333845
 20
81.335611343
 30
0.000000000
 11
213.674999714
 21
77.500000000
 31
0.000000000
  0
LINE
  5
C1D
330
A02
100
AcDbEntity
  8
ProjItem
100
AcDbLine
 10
209.193318546
 20
80.087499857
 30
0.000000000
 11
213.674999714
 21
77.500000000
 31
0.000000000
  0
LINE
  5
C1E
330
A02
100
AcDbEntity
  8
ProjItem
100
AcDbLine
 10
210.015722394
 20
79.015722394
 30
0.000000000
 11
213.674999714
 21
77.500000000
 31
0.000000000
  0
LINE
  5
C1F
330
A02
100
AcDbEntity
  8
ProjItem
100
AcDbLine
 10
211.087499857
 20
78.193318546
 30
0.000000000
 11
213.674999714
 21
77.500000000
 31
0.000000000
  0
LINE
  5
C20
330
A02
100
AcDbEntity
  8
ProjItem
100
AcDbLine
 10
303.324996948
 20
77.500000000
 30
0.000000000
 11
248.500000000
 21
87.547564507
 31
0.000000000
  0
LINE
  5
C21
330
A02
100
AcDbEntity
  8
ProjItem
100
AcDbLine
 10
248.500000000
 20
87.547564507
 30
0.000000000
 11
213.674999714
 21
77.500000000
 31
0.000000000
  0
LINE
  5
C22
330
A02
100
AcDbEntity
  8
ProjItem
100
AcDbLine
 10
247.734634399
 20
87.699804306
 30
0.000000000
 11
213.674999714
 21
77.500000000
 31
0.000000000
  0
LINE
  5
C23
330
A02
100
AcDbEntity
  8
ProjItem
100
AcDbLine
 10
222.013566971
 20
87.688486099
 30
0.000000000
 11
213.674999714
 21
77.500000000
 31
0.000000000
  0
LINE
  5
C24
330
A02
100
AcDbEntity
  8
ProjItem
100
AcDbLine
 10
247.734634399
 20
87.699804306
 30
0.000000000
 11
222.013566971
 21
87.688486099
 31
0.000000000
  0
LINE
  5
C25
330
A02
100
AcDbEntity
  8
ProjItem
100
AcDbLine
 10
222.692690849
 20
87.998632431
 30
0.000000000
 11
222.013566971
 21
87.688486099
 31
0.000000000
  0
LINE
  5
C26
330
A02
100
AcDbEntity
  8
ProjItem
100
AcDbLine
 10
247.734634399
 20
87.699804306
 30
0.000000000
 11
222.692690849
 21
87.998632431
 31
0.000000000
  0
LINE
  5
C27
330
A02
100
AcDbEntity
  8
ProjItem
100
AcDbLine
 10
247.085784912
 20
88.133350372
 30
0.000000000
 11
222.692690849
 21
87.998632431
 31
0.000000000
  0
LINE
  5
C28
330
A02
100
AcDbEntity
  8
ProjItem
100
AcDbLine
 10
223.096328735
 20
88.626704216
 30
0.000000000
 11
222.692690849
 21
87.998632431
 31
0.000000000
  0
LINE
  5
C29
330
A02
100
AcDbEntity
  8
ProjItem
100
AcDbLine
 10
247.085784912
 20
88.133350372
 30
0.000000000
 11
223.096328735
 21
88.626704216
 31
0.000000000
  0
LINE
  5
C2A
330
A02
100
AcDbEntity
  8
ProjItem
100
AcDbLine
 10
246.652240753
 20
88.782196999
 30
0.000000000
 11
223.096328735
 21
88.626704216
 31
0.000000000
  0
LINE
  5
C2B
330
A02
100
AcDbEntity
  8
ProjItem
100
AcDbLine
 10
246.500000000
 20
89.547563553
 30
0.000000000
 11
223.096328735
 21
88.626704216
 31
0.000000000
  0
LINE
  5
C2C
330
A02
100
AcDbEntity
  8
ProjItem
100
AcDbLine
 10
305.912498474
 20
78.193318546
 30
0.000000000
 11
303.324996948
 21
77.500000000
 31
0.000000000
  0
LINE
  5
C2D
330
A02
100
AcDbEntity
  8
ProjItem
100
AcDbLine
 10
306.984275818
 20
79.015722394
 30
0.000000000
 11
303.324996948
 21
77.500000000
 31
0.000000000
  0
LINE
  5
C2E
330
A02
100
AcDbEntity
  8
ProjItem
100
AcDbLine
 10
307.806678772
 20
80.087499857
 30
0.000000000
 11
303.324996948
 21
77.500000000
 31
0.000000000
  0
LINE
  5
C2F
330
A02
100
AcDbEntity
  8
ProjItem
100
AcDbLine
 10
308.323669434
 20
81.335611343
 30
0.000000000
 11
303.324996948
 21
77.500000000
 31
0.000000000
  0
LINE
  5
C30
330
A02
100
AcDbEntity
  8
ProjItem
100
AcDbLine
 10
295.563568115
 20
87.688486099
 30
0.000000000
 11
303.324996948
 21
77.500000000
 31
0.000000000
  0
LINE
  5
C31
330
A02
100
AcDbEntity
  8
ProjItem
100
AcDbLine
 10
308.323669434
 20
81.335611343
 30
0.000000000
 11
295.563568115
 21
87.688486099
 31
0.000000000
  0
LINE
  5
C32
330
A02
100
AcDbEntity
  8
ProjItem
100
AcDbLine
 10
294.824577332
 20
87.794737816
 30
0.000000000
 11
303.324996948
 21
77.500000000
 31
0.000000000
  0
LINE
  5
C33
330
A02
100
AcDbEntity
  8
ProjItem
100
AcDbLine
 10
295.563568115
 20
87.688486099
 30
0.000000000
 11
294.824577332
 21
87.794737816
 31
0.000000000
  0
LINE
  5
C34
330
A02
100
AcDbEntity
  8
ProjItem
100
AcDbLine
 10
308.500000000
 20
82.674999714
 30
0.000000000
 11
295.563568115
 21
87.688486099
 31
0.000000000
  0
LINE
  5
C35
330
A02
100
AcDbEntity
  8
ProjItem
100
AcDbLine
 10
296.242691040
 20
87.998632431
 30
0.000000000
 11
295.563568115
 21
87.688486099
 31
0.000000000
  0
LINE
  5
C36
330
A02
100
AcDbEntity
  8
ProjItem
100
AcDbLine
 10
308.500000000
 20
82.674999714
 30
0.000000000
 11
296.242691040
 21
87.998632431
 31
0.000000000
  0
LINE
  5
C37
330
A02
100
AcDbEntity
  8
ProjItem
100
AcDbLine
 10
296.646324158
 20
88.626704216
 30
0.000000000
 11
296.242691040
 21
87.998632431
 31
0.000000000
  0
LINE
  5
C38
330
A02
100
AcDbEntity
  8
ProjItem
100
AcDbLine
 10
308.500000000
 20
82.674999714
 30
0.000000000
 11
296.646324158
 21
88.626704216
 31
0.000000000
  0
LINE
  5
C39
330
A02
100
AcDbEntity
  8
ProjItem
100
AcDbLine
 10
296.646324158
 20
89.373294830
 30
0.000000000
 11
296.646324158
 21
88.626704216
 31
0.000000000
  0
LINE
  5
C3A
330
A02
100
AcDbEntity
  8
ProjItem
100
AcDbLine
 10
308.500000000
 20
82.674999714
 30
0.000000000
 11
296.646324158
 21
89.373294830
 31
0.000000000
  0
LINE
  5
C3B
330
A02
100
AcDbEntity
  8
ProjItem
100
AcDbLine
 10
296.242691040
 20
90.001368523
 30
0.000000000
 11
296.646324158
 21
89.373294830
 31
0.000000000
  0
LINE
  5
C3C
330
A02
100
AcDbEntity
  8
ProjItem
100
AcDbLine
 10
308.323669434
 20
128.664390564
 30
0.000000000
 11
295.563568115
 21
122.311511993
 31
0.000000000
  0
LINE
  5
C3D
330
A02
100
AcDbEntity
  8
ProjItem
100
AcDbLine
 10
295.563568115
 20
122.311511993
 30
0.000000000
 11
308.500000000
 21
127.325000763
 31
0.000000000
  0
LINE
  5
C3E
330
A02
100
AcDbEntity
  8
ProjItem
100
AcDbLine
 10
296.242691040
 20
122.001365662
 30
0.000000000
 11
308.500000000
 21
127.325000763
 31
0.000000000
  0
LINE
  5
C3F
330
A02
100
AcDbEntity
  8
ProjItem
100
AcDbLine
 10
295.563568115
 20
122.311511993
 30
0.000000000
 11
296.242691040
 21
122.001365662
 31
0.000000000
  0
LINE
  5
C40
330
A02
100
AcDbEntity
  8
ProjItem
100
AcDbLine
 10
296.646324158
 20
121.373294830
 30
0.000000000
 11
308.500000000
 21
127.325000763
 31
0.000000000
  0
LINE
  5
C41
330
A02
100
AcDbEntity
  8
ProjItem
100
AcDbLine
 10
296.242691040
 20
122.001365662
 30
0.000000000
 11
296.646324158
 21
121.373294830
 31
0.000000000
  0
LINE
  5
C42
330
A02
100
AcDbEntity
  8
ProjItem
100
AcDbLine
 10
303.324996948
 20
132.500000000
 30
0.000000000
 11
295.563568115
 21
122.311511993
 31
0.000000000
  0
LINE
  5
C43
330
A02
100
AcDbEntity
  8
ProjItem
100
AcDbLine
 10
308.323669434
 20
128.664390564
 30
0.000000000
 11
303.324996948
 21
132.500000000
 31
0.000000000
  0
LINE
  5
C44
330
A02
100
AcDbEntity
  8
ProjItem
100
AcDbLine
 10
307.806678772
 20
129.912498474
 30
0.000000000
 11
303.324996948
 21
132.500000000
 31
0.000000000
  0
LINE
  5
C45
330
A02
100
AcDbEntity
  8
ProjItem
100
AcDbLine
 10
306.984275818
 20
130.984275818
 30
0.000000000
 11
303.324996948
 21
132.500000000
 31
0.000000000
  0
LINE
  5
C46
330
A02
100
AcDbEntity
  8
ProjItem
100
AcDbLine
 10
305.912498474
 20
131.806682587
 30
0.000000000
 11
303.324996948
 21
132.500000000
 31
0.000000000
  0
LINE
  5
C47
330
A02
100
AcDbEntity
  8
ProjItem
100
AcDbLine
 10
213.674999714
 20
132.500000000
 30
0.000000000
 11
248.500000000
 21
122.500000000
 31
0.000000000
  0
LINE
  5
C48
330
A02
100
AcDbEntity
  8
ProjItem
100
AcDbLine
 10
248.500000000
 20
122.500000000
 30
0.000000000
 11
303.324996948
 21
132.500000000
 31
0.000000000
  0
LINE
  5
C49
330
A02
100
AcDbEntity
  8
ProjItem
100
AcDbLine
 10
268.700000763
 20
122.500000000
 30
0.000000000
 11
303.324996948
 21
132.500000000
 31
0.000000000
  0
LINE
  5
C4A
330
A02
100
AcDbEntity
  8
ProjItem
100
AcDbLine
 10
269.465366364
 20
122.347759247
 30
0.000000000
 11
303.324996948
 21
132.500000000
 31
0.000000000
  0
LINE
  5
C4B
330
A02
100
AcDbEntity
  8
ProjItem
100
AcDbLine
 10
270.699996948
 20
89.547563553
 30
0.000000000
 11
294.824577332
 21
90.205263138
 31
0.000000000
  0
LINE
  5
C4C
330
A02
100
AcDbEntity
  8
ProjItem
100
AcDbLine
 10
294.260337830
 20
89.716348648
 30
0.000000000
 11
294.824577332
 21
90.205263138
 31
0.000000000
  0
LINE
  5
C4D
330
A02
100
AcDbEntity
  8
ProjItem
100
AcDbLine
 10
270.699996948
 20
89.547563553
 30
0.000000000
 11
294.260337830
 21
89.716348648
 31
0.000000000
  0
LINE
  5
C4E
330
A02
100
AcDbEntity
  8
ProjItem
100
AcDbLine
 10
294.050003052
 20
89.000000000
 30
0.000000000
 11
294.260337830
 21
89.716348648
 31
0.000000000
  0
LINE
  5
C4F
330
A02
100
AcDbEntity
  8
ProjItem
100
AcDbLine
 10
270.699996948
 20
89.547563553
 30
0.000000000
 11
294.050003052
 21
89.000000000
 31
0.000000000
  0
LINE
  5
C50
330
A02
100
AcDbEntity
  8
ProjItem
100
AcDbLine
 10
270.547760010
 20
88.782196999
 30
0.000000000
 11
294.050003052
 21
89.000000000
 31
0.000000000
  0
LINE
  5
C51
330
A02
100
AcDbEntity
  8
ProjItem
100
AcDbLine
 10
294.260337830
 20
88.283651352
 30
0.000000000
 11
294.050003052
 21
89.000000000
 31
0.000000000
  0
LINE
  5
C52
330
A02
100
AcDbEntity
  8
ProjItem
100
AcDbLine
 10
270.547760010
 20
88.782196999
 30
0.000000000
 11
294.260337830
 21
88.283651352
 31
0.000000000
  0
LINE
  5
C53
330
A02
100
AcDbEntity
  8
ProjItem
100
AcDbLine
 10
270.114212036
 20
88.133350372
 30
0.000000000
 11
294.260337830
 21
88.283651352
 31
0.000000000
  0
LINE
  5
C54
330
A02
100
AcDbEntity
  8
ProjItem
100
AcDbLine
 10
294.824577332
 20
87.794737816
 30
0.000000000
 11
294.260337830
 21
88.283651352
 31
0.000000000
  0
LINE
  5
C55
330
A02
100
AcDbEntity
  8
ProjItem
100
AcDbLine
 10
270.114212036
 20
88.133350372
 30
0.000000000
 11
294.824577332
 21
87.794737816
 31
0.000000000
  0
LINE
  5
C56
330
A02
100
AcDbEntity
  8
ProjItem
100
AcDbLine
 10
269.465366364
 20
87.699804306
 30
0.000000000
 11
294.824577332
 21
87.794737816
 31
0.000000000
  0
LINE
  5
C57
330
A02
100
AcDbEntity
  8
ProjItem
100
AcDbLine
 10
269.465366364
 20
87.699804306
 30
0.000000000
 11
303.324996948
 21
77.500000000
 31
0.000000000
  0
LINE
  5
C58
330
A02
100
AcDbEntity
  8
ProjItem
100
AcDbLine
 10
268.700000763
 20
87.547564507
 30
0.000000000
 11
303.324996948
 21
77.500000000
 31
0.000000000
  0
LINE
  5
C59
330
A02
100
AcDbEntity
  8
ProjItem
100
AcDbLine
 10
246.500000000
 20
101.500000000
 30
0.000000000
 11
222.692690849
 21
90.001368523
 31
0.000000000
  0
LINE
  5
C5A
330
A02
100
AcDbEntity
  8
ProjItem
100
AcDbLine
 10
222.692690849
 20
90.001368523
 30
0.000000000
 11
246.500000000
 21
89.547563553
 31
0.000000000
  0
LINE
  5
C5B
330
A02
100
AcDbEntity
  8
ProjItem
100
AcDbLine
 10
223.096328735
 20
89.373294830
 30
0.000000000
 11
246.500000000
 21
89.547563553
 31
0.000000000
  0
LINE
  5
C5C
330
A02
100
AcDbEntity
  8
ProjItem
100
AcDbLine
 10
222.692690849
 20
90.001368523
 30
0.000000000
 11
223.096328735
 21
89.373294830
 31
0.000000000
  0
LINE
  5
C5D
330
A02
100
AcDbEntity
  8
ProjItem
100
AcDbLine
 10
223.096328735
 20
89.373294830
 30
0.000000000
 11
223.096328735
 21
88.626704216
 31
0.000000000
  0
LINE
  5
C5E
330
A02
100
AcDbEntity
  8
ProjItem
100
AcDbLine
 10
246.652240753
 20
102.265367508
 30
0.000000000
 11
223.852180481
 21
104.023761749
 31
0.000000000
  0
LINE
  5
C5F
330
A02
100
AcDbEntity
  8
ProjItem
100
AcDbLine
 10
223.852180481
 20
104.023761749
 30
0.000000000
 11
246.500000000
 21
101.500000000
 31
0.000000000
  0
LINE
  5
C60
330
A02
100
AcDbEntity
  8
ProjItem
100
AcDbLine
 10
223.227851868
 20
103.240879059
 30
0.000000000
 11
246.500000000
 21
101.500000000
 31
0.000000000
  0
LINE
  5
C61
330
A02
100
AcDbEntity
  8
ProjItem
100
AcDbLine
 10
223.852180481
 20
104.023761749
 30
0.000000000
 11
223.227851868
 21
103.240879059
 31
0.000000000
  0
LINE
  5
C62
330
A02
100
AcDbEntity
  8
ProjItem
100
AcDbLine
 10
223.227851868
 20
103.240879059
 30
0.000000000
 11
222.692690849
 21
90.001368523
 31
0.000000000
  0
LINE
  5
C63
330
A02
100
AcDbEntity
  8
ProjItem
100
AcDbLine
 10
222.325672150
 20
102.806413651
 30
0.000000000
 11
222.692690849
 21
90.001368523
 31
0.000000000
  0
LINE
  5
C64
330
A02
100
AcDbEntity
  8
ProjItem
100
AcDbLine
 10
223.227851868
 20
103.240879059
 30
0.000000000
 11
222.325672150
 21
102.806413651
 31
0.000000000
  0
LINE
  5
C65
330
A02
100
AcDbEntity
  8
ProjItem
100
AcDbLine
 10
222.013566971
 20
90.311512947
 30
0.000000000
 11
222.692690849
 21
90.001368523
 31
0.000000000
  0
LINE
  5
C66
330
A02
100
AcDbEntity
  8
ProjItem
100
AcDbLine
 10
222.325672150
 20
102.806413651
 30
0.000000000
 11
222.013566971
 21
90.311512947
 31
0.000000000
  0
LINE
  5
C67
330
A02
100
AcDbEntity
  8
ProjItem
100
AcDbLine
 10
221.324327469
 20
102.806413651
 30
0.000000000
 11
222.013566971
 21
90.311512947
 31
0.000000000
  0
LINE
  5
C68
330
A02
100
AcDbEntity
  8
ProjItem
100
AcDbLine
 10
222.325672150
 20
102.806413651
 30
0.000000000
 11
221.324327469
 21
102.806413651
 31
0.000000000
  0
LINE
  5
C69
330
A02
100
AcDbEntity
  8
ProjItem
100
AcDbLine
 10
221.274574280
 20
90.205263138
 30
0.000000000
 11
222.013566971
 21
90.311512947
 31
0.000000000
  0
LINE
  5
C6A
330
A02
100
AcDbEntity
  8
ProjItem
100
AcDbLine
 10
221.324327469
 20
102.806413651
 30
0.000000000
 11
221.274574280
 21
90.205263138
 31
0.000000000
  0
LINE
  5
C6B
330
A02
100
AcDbEntity
  8
ProjItem
100
AcDbLine
 10
220.422148705
 20
103.240879059
 30
0.000000000
 11
221.274574280
 21
90.205263138
 31
0.000000000
  0
LINE
  5
C6C
330
A02
100
AcDbEntity
  8
ProjItem
100
AcDbLine
 10
221.324327469
 20
102.806413651
 30
0.000000000
 11
220.422148705
 21
103.240879059
 31
0.000000000
  0
LINE
  5
C6D
330
A02
100
AcDbEntity
  8
ProjItem
100
AcDbLine
 10
220.710339546
 20
89.716348648
 30
0.000000000
 11
221.274574280
 21
90.205263138
 31
0.000000000
  0
LINE
  5
C6E
330
A02
100
AcDbEntity
  8
ProjItem
100
AcDbLine
 10
220.422148705
 20
103.240879059
 30
0.000000000
 11
220.710339546
 21
89.716348648
 31
0.000000000
  0
LINE
  5
C6F
330
A02
100
AcDbEntity
  8
ProjItem
100
AcDbLine
 10
208.500000000
 20
82.674999714
 30
0.000000000
 11
220.710339546
 21
89.716348648
 31
0.000000000
  0
LINE
  5
C70
330
A02
100
AcDbEntity
  8
ProjItem
100
AcDbLine
 10
220.422148705
 20
103.240879059
 30
0.000000000
 11
208.500000000
 21
82.674999714
 31
0.000000000
  0
LINE
  5
C71
330
A02
100
AcDbEntity
  8
ProjItem
100
AcDbLine
 10
220.500000000
 20
89.000000000
 30
0.000000000
 11
220.710339546
 21
89.716348648
 31
0.000000000
  0
LINE
  5
C72
330
A02
100
AcDbEntity
  8
ProjItem
100
AcDbLine
 10
224.074999809
 20
105.000000000
 30
0.000000000
 11
223.852180481
 21
104.023761749
 31
0.000000000
  0
LINE
  5
C73
330
A02
100
AcDbEntity
  8
ProjItem
100
AcDbLine
 10
246.652240753
 20
102.265367508
 30
0.000000000
 11
224.074999809
 21
105.000000000
 31
0.000000000
  0
LINE
  5
C74
330
A02
100
AcDbEntity
  8
ProjItem
100
AcDbLine
 10
294.824577332
 20
119.794734955
 30
0.000000000
 11
270.699996948
 21
120.500000000
 31
0.000000000
  0
LINE
  5
C75
330
A02
100
AcDbEntity
  8
ProjItem
100
AcDbLine
 10
294.260337830
 20
120.283653259
 30
0.000000000
 11
270.699996948
 21
120.500000000
 31
0.000000000
  0
LINE
  5
C76
330
A02
100
AcDbEntity
  8
ProjItem
100
AcDbLine
 10
294.824577332
 20
119.794734955
 30
0.000000000
 11
294.260337830
 21
120.283653259
 31
0.000000000
  0
LINE
  5
C77
330
A02
100
AcDbEntity
  8
ProjItem
100
AcDbLine
 10
294.050003052
 20
121.000000000
 30
0.000000000
 11
270.699996948
 21
120.500000000
 31
0.000000000
  0
LINE
  5
C78
330
A02
100
AcDbEntity
  8
ProjItem
100
AcDbLine
 10
294.260337830
 20
120.283653259
 30
0.000000000
 11
294.050003052
 21
121.000000000
 31
0.000000000
  0
LINE
  5
C79
330
A02
100
AcDbEntity
  8
ProjItem
100
AcDbLine
 10
246.500000000
 20
120.500000000
 30
0.000000000
 11
222.692690849
 21
119.998630524
 31
0.000000000
  0
LINE
  5
C7A
330
A02
100
AcDbEntity
  8
ProjItem
100
AcDbLine
 10
223.096328735
 20
120.626701355
 30
0.000000000
 11
222.692690849
 21
119.998630524
 31
0.000000000
  0
LINE
  5
C7B
330
A02
100
AcDbEntity
  8
ProjItem
100
AcDbLine
 10
246.500000000
 20
120.500000000
 30
0.000000000
 11
223.096328735
 21
120.626701355
 31
0.000000000
  0
LINE
  5
C7C
330
A02
100
AcDbEntity
  8
ProjItem
100
AcDbLine
 10
223.096328735
 20
121.373294830
 30
0.000000000
 11
223.096328735
 21
120.626701355
 31
0.000000000
  0
LINE
  5
C7D
330
A02
100
AcDbEntity
  8
ProjItem
100
AcDbLine
 10
246.500000000
 20
120.500000000
 30
0.000000000
 11
223.096328735
 21
121.373294830
 31
0.000000000
  0
LINE
  5
C7E
330
A02
100
AcDbEntity
  8
ProjItem
100
AcDbLine
 10
246.652240753
 20
121.265369415
 30
0.000000000
 11
223.096328735
 21
121.373294830
 31
0.000000000
  0
LINE
  5
C7F
330
A02
100
AcDbEntity
  8
ProjItem
100
AcDbLine
 10
247.085784912
 20
121.914215088
 30
0.000000000
 11
223.096328735
 21
121.373294830
 31
0.000000000
  0
LINE
  5
C80
330
A02
100
AcDbEntity
  8
ProjItem
100
AcDbLine
 10
222.692690849
 20
122.001365662
 30
0.000000000
 11
223.096328735
 21
121.373294830
 31
0.000000000
  0
LINE
  5
C81
330
A02
100
AcDbEntity
  8
ProjItem
100
AcDbLine
 10
247.085784912
 20
121.914215088
 30
0.000000000
 11
222.692690849
 21
122.001365662
 31
0.000000000
  0
LINE
  5
C82
330
A02
100
AcDbEntity
  8
ProjItem
100
AcDbLine
 10
247.734634399
 20
122.347759247
 30
0.000000000
 11
222.692690849
 21
122.001365662
 31
0.000000000
  0
LINE
  5
C83
330
A02
100
AcDbEntity
  8
ProjItem
100
AcDbLine
 10
222.013566971
 20
122.311511993
 30
0.000000000
 11
222.692690849
 21
122.001365662
 31
0.000000000
  0
LINE
  5
C84
330
A02
100
AcDbEntity
  8
ProjItem
100
AcDbLine
 10
247.734634399
 20
122.347759247
 30
0.000000000
 11
222.013566971
 21
122.311511993
 31
0.000000000
  0
LINE
  5
C85
330
A02
100
AcDbEntity
  8
ProjItem
100
AcDbLine
 10
247.734634399
 20
122.347759247
 30
0.000000000
 11
213.674999714
 21
132.500000000
 31
0.000000000
  0
LINE
  5
C86
330
A02
100
AcDbEntity
  8
ProjItem
100
AcDbLine
 10
294.824577332
 20
122.205261230
 30
0.000000000
 11
303.324996948
 21
132.500000000
 31
0.000000000
  0
LINE
  5
C87
330
A02
100
AcDbEntity
  8
ProjItem
100
AcDbLine
 10
269.465366364
 20
122.347759247
 30
0.000000000
 11
294.824577332
 21
122.205261230
 31
0.000000000
  0
LINE
  5
C88
330
A02
100
AcDbEntity
  8
ProjItem
100
AcDbLine
 10
270.114212036
 20
121.914215088
 30
0.000000000
 11
294.824577332
 21
122.205261230
 31
0.000000000
  0
LINE
  5
C89
330
A02
100
AcDbEntity
  8
ProjItem
100
AcDbLine
 10
294.260337830
 20
121.716346741
 30
0.000000000
 11
294.824577332
 21
122.205261230
 31
0.000000000
  0
LINE
  5
C8A
330
A02
100
AcDbEntity
  8
ProjItem
100
AcDbLine
 10
270.114212036
 20
121.914215088
 30
0.000000000
 11
294.260337830
 21
121.716346741
 31
0.000000000
  0
LINE
  5
C8B
330
A02
100
AcDbEntity
  8
ProjItem
100
AcDbLine
 10
270.547760010
 20
121.265369415
 30
0.000000000
 11
294.260337830
 21
121.716346741
 31
0.000000000
  0
LINE
  5
C8C
330
A02
100
AcDbEntity
  8
ProjItem
100
AcDbLine
 10
294.050003052
 20
121.000000000
 30
0.000000000
 11
294.260337830
 21
121.716346741
 31
0.000000000
  0
LINE
  5
C8D
330
A02
100
AcDbEntity
  8
ProjItem
100
AcDbLine
 10
270.547760010
 20
121.265369415
 30
0.000000000
 11
294.050003052
 21
121.000000000
 31
0.000000000
  0
LINE
  5
C8E
330
A02
100
AcDbEntity
  8
ProjItem
100
AcDbLine
 10
294.824577332
 20
122.205261230
 30
0.000000000
 11
295.563568115
 21
122.311511993
 31
0.000000000
  0
LINE
  5
C8F
330
A02
100
AcDbEntity
  8
ProjItem
100
AcDbLine
 10
296.646324158
 20
121.373294830
 30
0.000000000
 11
296.646324158
 21
120.626701355
 31
0.000000000
  0
LINE
  5
C90
330
A02
100
AcDbEntity
  8
ProjItem
100
AcDbLine
 10
296.646324158
 20
120.626701355
 30
0.000000000
 11
308.500000000
 21
127.325000763
 31
0.000000000
  0
LINE
  5
C91
330
A02
100
AcDbEntity
  8
ProjItem
100
AcDbLine
 10
296.646324158
 20
120.626701355
 30
0.000000000
 11
296.242691040
 21
119.998630524
 31
0.000000000
  0
LINE
  5
C92
330
A02
100
AcDbEntity
  8
ProjItem
100
AcDbLine
 10
220.422148705
 20
103.240879059
 30
0.000000000
 11
219.797819138
 21
104.023761749
 31
0.000000000
  0
LINE
  5
C93
330
A02
100
AcDbEntity
  8
ProjItem
100
AcDbLine
 10
219.797819138
 20
104.023761749
 30
0.000000000
 11
208.500000000
 21
82.674999714
 31
0.000000000
  0
LINE
  5
C94
330
A02
100
AcDbEntity
  8
ProjItem
100
AcDbLine
 10
219.797819138
 20
104.023761749
 30
0.000000000
 11
219.574999809
 21
105.000000000
 31
0.000000000
  0
LINE
  5
C95
330
A02
100
AcDbEntity
  8
ProjItem
100
AcDbLine
 10
222.013566971
 20
87.688486099
 30
0.000000000
 11
221.274574280
 21
87.794737816
 31
0.000000000
  0
ENDSEC
  0
SECTION
  2
OBJECTS
  0
DICTIONARY
  5
F000
330
0
100
AcDbDictionary
  3
ACAD_GROUP
350
F001
  0
DICTIONARY
  5
F001
330
F000
100
AcDbDictionary
  0
ENDSEC
  0
EOF